<?xml version="1.0" encoding="UTF-8" standalone="no"?>
<svg
   xmlns:dc="http://purl.org/dc/elements/1.1/"
   xmlns:cc="http://creativecommons.org/ns#"
   xmlns:rdf="http://www.w3.org/1999/02/22-rdf-syntax-ns#"
   xmlns:svg="http://www.w3.org/2000/svg"
   xmlns="http://www.w3.org/2000/svg"
   xmlns:sodipodi="http://sodipodi.sourceforge.net/DTD/sodipodi-0.dtd"
   xmlns:inkscape="http://www.inkscape.org/namespaces/inkscape"
   width="200"
   height="200"
   viewBox="0 0 52.916668 52.916666"
   version="1.1"
   id="svg8"
   inkscape:version="1.0.2-2 (e86c870879, 2021-01-15)"
   sodipodi:docname="authority.svg">
  <defs
     id="defs2">
    <inkscape:path-effect
       effect="envelope"
       id="path-effect4658"
       is_visible="true"
       yy="true"
       xx="true"
       bendpath1="m -199.08406,108.42369 h 7.0057"
       bendpath2="m -192.07836,108.42369 v 6.75242"
       bendpath3="m -199.08406,115.17611 h 7.0057"
       bendpath4="m -199.08406,108.42369 v 6.75242" />
    <inkscape:path-effect
       effect="bend_path"
       id="path-effect4656"
       is_visible="true"
       bendpath="m -192.00142,114.60623 c 2.12577,-0.53066 4.48261,0.85111 7.0057,0"
       prop_scale="1"
       scale_y_rel="false"
       vertical="false"
       bendpath-nodetypes="cc" />
    <inkscape:path-effect
       effect="bounding_box"
       id="path-effect4654"
       is_visible="true"
       linkedpath=""
       visualbounds="false" />
  </defs>
  <sodipodi:namedview
     id="base"
     pagecolor="#ffffff"
     bordercolor="#666666"
     borderopacity="1.0"
     inkscape:pageopacity="0.0"
     inkscape:pageshadow="2"
     inkscape:zoom="2.8284272"
     inkscape:cx="-50.771289"
     inkscape:cy="80.180592"
     inkscape:document-units="px"
     inkscape:current-layer="g96"
     showgrid="false"
     fit-margin-top="0"
     fit-margin-left="0"
     fit-margin-right="0"
     fit-margin-bottom="0"
     inkscape:window-width="1920"
     inkscape:window-height="1017"
     inkscape:window-x="-8"
     inkscape:window-y="-8"
     inkscape:window-maximized="1"
     showguides="false"
     inkscape:object-nodes="true"
     units="px"
     inkscape:snap-page="true"
     inkscape:document-rotation="0" />
  <metadata
     id="metadata5">
    <rdf:RDF>
      <cc:Work
         rdf:about="">
        <dc:format>image/svg+xml</dc:format>
        <dc:type
           rdf:resource="http://purl.org/dc/dcmitype/StillImage" />
        <dc:title />
      </cc:Work>
    </rdf:RDF>
  </metadata>
  <g
     inkscape:label="Layer 1"
     inkscape:groupmode="layer"
     id="layer1"
     transform="translate(98.048812,-95.14345)">
    <path
       inkscape:connector-curvature="0"
       style="fill:#222222;fill-opacity:1;stroke:none;stroke-width:0.1;stroke-opacity:1"
       d="m 78.242114,98.738907 c -0.356296,-0.113126 -0.765436,-0.116566 -1.142072,0.005 -0.500122,0.161452 -0.568014,0.264495 -0.847444,1.280983 -0.12792,0.46536 -0.27459,0.98229 -0.325982,1.14844 -0.05162,0.1661 -0.12274,0.41875 -0.15818,0.56145 -0.03506,0.14281 -0.11192,0.42497 -0.17046,0.62736 -0.1832,0.63242 -0.399152,1.41348 -0.404778,1.46575 -0.003,0.0275 -0.05736,0.22692 -0.12046,0.44378 -0.06306,0.21689 -0.15332,0.54651 -0.200792,0.73255 -0.0475,0.18605 -0.19168,0.7322 -0.320522,1.21303 -0.12856,0.48091 -0.231314,0.88493 -0.227716,0.89795 0.0034,0.013 -0.02246,0.11592 -0.05742,0.22874 -0.07426,0.23867 -0.39134,1.53425 -0.58582,2.39066 -0.11666,0.5131 -0.15962,0.99701 -0.12812,1.44026 0.019,0.26956 0.18112,0.63966 0.376472,0.85985 0.16662,0.1878 0.240902,0.23117 0.480604,0.28392 0.257652,0.0567 0.31547,0.0515 0.640944,-0.0534 0.284112,-0.0917 0.404918,-0.1574 0.585898,-0.31908 0.354004,-0.31609 0.381222,-0.3835 0.860676,-2.14211 0.207836,-0.76282 0.41076,-1.50891 0.440432,-1.62046 0.0116,-0.043 0.0753,-0.26655 0.14208,-0.49655 0.06658,-0.23004 0.12338,-0.442 0.12606,-0.47043 0.0026,-0.0287 0.0691,-0.2763 0.14752,-0.55061 0.07844,-0.27431 0.207182,-0.73394 0.28576,-1.02158 0.07864,-0.28762 0.20901,-0.75037 0.289866,-1.02808 0.08086,-0.27769 0.1439,-0.51535 0.14018,-0.529 -0.0038,-0.0137 0.05368,-0.23397 0.12738,-0.48984 0.305858,-1.05795 0.899202,-3.22353 0.958492,-3.4977 0.03226,-0.150084 0.02138,-0.291847 -0.04072,-0.523482 -0.07636,-0.285031 -0.10726,-0.337744 -0.305944,-0.518504 -0.1576,-0.143446 -0.352496,-0.251121 -0.56627,-0.319029 z M 58.418656,93.459161 c -0.317562,-0.101287 -0.682238,-0.114286 -1.041822,-0.02288 -0.282794,0.07186 -0.369196,0.114221 -0.51172,0.252259 -0.15256,0.147758 -0.204578,0.280183 -0.471562,1.192333 -0.16528,0.564084 -0.314478,1.094521 -0.331202,1.178988 -0.0168,0.08446 -0.08192,0.320032 -0.14564,0.523738 -0.06372,0.203706 -0.12422,0.420821 -0.1336,0.482093 -0.0094,0.06127 -0.04638,0.206077 -0.08254,0.322375 -0.06416,0.206522 -0.338642,1.207793 -0.632676,2.307387 -0.08068,0.301546 -0.208248,0.769916 -0.282668,1.040656 -0.07448,0.27072 -0.1571,0.58729 -0.18408,0.70356 -0.02674,0.11634 -0.1209,0.49296 -0.209756,0.8366 -0.58199,2.25437 -0.719514,2.99708 -0.663632,3.58357 0.03094,0.32488 0.0514,0.40178 0.1726,0.63867 0.15436,0.30155 0.406902,0.48966 0.747582,0.55622 0.24489,0.048 0.326456,0.0421 0.585184,-0.044 0.538228,-0.17906 1.015444,-0.70982 1.10948,-1.23435 0.02,-0.11204 0.0899,-0.38165 0.15614,-0.59925 0.06598,-0.21769 0.13426,-0.46483 0.15166,-0.54949 0.0174,-0.0847 0.08344,-0.33123 0.14606,-0.54797 0.06252,-0.21677 0.18882,-0.66519 0.28079,-0.99629 0.09196,-0.33111 0.219782,-0.79058 0.284226,-1.02123 0.06452,-0.23062 0.15742,-0.5721 0.206458,-0.7584 0.09812,-0.37496 0.12158,-0.46097 0.344782,-1.25596 0.08524,-0.302711 0.17702,-0.643096 0.20359,-0.756891 0.02666,-0.113766 0.09442,-0.358174 0.1516,-0.542674 0.05682,-0.18456 0.1016,-0.344069 0.09882,-0.354528 -0.0028,-0.01048 0.0598,-0.248456 0.13946,-0.529198 0.07964,-0.280724 0.209208,-0.745666 0.287456,-1.033286 0.07824,-0.287631 0.1967,-0.714265 0.263092,-0.947802 0.32862,-1.155062 0.352072,-1.521035 0.12096,-1.873371 -0.17086,-0.260436 -0.441312,-0.44968 -0.758894,-0.55089 z m 3.399266,1.524547 -0.07678,0.272229 c -0.257596,0.917435 -0.393402,1.419858 -0.389126,1.435724 0.0026,0.0101 -0.06984,0.281499 -0.16014,0.6035 -0.17814,0.633989 -0.340848,1.230277 -0.559528,2.048653 -0.07666,0.287177 -0.19312,0.710556 -0.258442,0.941436 -0.06538,0.23086 -0.15276,0.55987 -0.19344,0.73071 -0.04048,0.1709 -0.09468,0.37092 -0.12066,0.4445 -0.0259,0.0736 -0.0976,0.33241 -0.15952,0.57553 -0.06166,0.24323 -0.14042,0.5372 -0.17418,0.65298 -0.12704,0.43347 -0.378476,1.35541 -0.374198,1.37128 0.0026,0.009 -0.06328,0.25267 -0.1458,0.54118 -0.0826,0.28851 -0.14826,0.53467 -0.14494,0.54674 0.0032,0.0121 -0.02564,0.12205 -0.06414,0.24518 -0.06688,0.21336 -0.333652,1.18368 -0.478024,1.73892 l -1.96e-4,7.2e-4 c -0.03722,0.14328 -0.05458,0.28825 -0.0391,0.32187 0.0154,0.0336 0.22865,0.11506 0.473062,0.1815 0.244488,0.0663 0.667464,0.18208 0.940612,0.25585 0.273098,0.074 0.748418,0.20585 1.056136,0.293 0.307716,0.0872 0.569326,0.1558 0.582078,0.15214 0.0126,-0.003 0.20884,0.0486 0.435338,0.1151 0.334504,0.0985 0.86635,0.24449 1.534232,0.42169 0.640426,0.16966 1.176466,0.31513 1.65453,0.44952 0.3213,0.0902 0.59246,0.16228 0.602986,0.15922 0.0106,-0.003 0.268656,0.0646 0.572852,0.14966 0.304204,0.085 0.63235,0.17562 0.729284,0.2016 0.09694,0.026 0.434974,0.11772 0.751306,0.20454 0.31647,0.0864 0.759754,0.20437 0.98453,0.26225 0.224888,0.0576 0.557056,0.1512 0.738972,0.20802 0.18198,0.0567 0.342452,0.10058 0.355802,0.0969 0.0134,-0.004 0.1829,0.039 0.376678,0.0956 0.19378,0.0566 0.356668,0.0956 0.361896,0.0855 0.0124,-0.0236 0.24027,-0.86062 0.353124,-1.29783 0.04794,-0.18618 0.13506,-0.50114 0.19366,-0.69948 0.05852,-0.19836 0.10346,-0.37087 0.09966,-0.38396 -0.0036,-0.013 0.04902,-0.21574 0.11614,-0.45028 0.1291,-0.45213 0.372836,-1.34094 0.604296,-2.20396 0.07694,-0.28723 0.19322,-0.7107 0.258484,-0.94142 0.06504,-0.23078 0.1511,-0.55955 0.19184,-0.73038 0.04044,-0.17094 0.09546,-0.37072 0.1214,-0.4443 0.02594,-0.0735 0.09784,-0.3331 0.15976,-0.57623 0.06172,-0.2432 0.13932,-0.53673 0.17328,-0.65246 0.13664,-0.46585 0.379282,-1.35618 0.374456,-1.37425 -0.0026,-0.0104 0.06922,-0.28237 0.1594,-0.6037 0.0906,-0.32122 0.217198,-0.772899 0.281814,-1.003616 0.17016,-0.605395 0.295304,-1.123742 0.272792,-1.13152 -0.12872,-0.0439 -1.104624,-0.318057 -1.118898,-0.314221 -0.0108,0.0027 -0.250372,-0.06002 -0.532968,-0.139564 -0.282582,-0.07951 -0.771812,-0.213544 -1.08759,-0.297575 -0.315824,-0.08385 -0.783482,-0.213758 -1.039326,-0.287617 -0.255848,-0.07386 -0.473904,-0.131408 -0.485014,-0.128399 -0.011,0.0029 -0.256658,-0.06258 -0.545124,-0.145288 -0.288502,-0.08261 -0.534842,-0.147136 -0.547868,-0.143558 -0.0126,0.0034 -0.14686,-0.03347 -0.298328,-0.08149 -0.15156,-0.04768 -0.40416,-0.118002 -0.561128,-0.156538 -0.15698,-0.03854 -0.48566,-0.126308 -0.730512,-0.194182 -0.244836,-0.06795 -0.680172,-0.186676 -0.967424,-0.263646 -0.792178,-0.212555 -1.402926,-0.378641 -2.039082,-0.5555 -0.316912,-0.08816 -0.598772,-0.163169 -0.626206,-0.166235 -0.04381,-0.0047 -0.533616,-0.137397 -1.344906,-0.364791 z m 13.870616,4.274058 c -0.119,-0.03719 -0.402172,-0.112188 -0.62995,-0.166454 -0.227784,-0.05426 -0.442984,-0.110448 -0.477626,-0.124736 -0.04342,-0.0184 -0.09784,0.111944 -0.17678,0.424138 -0.17972,0.709286 -0.203134,0.796626 -0.352416,1.335286 -0.07762,0.27916 -0.1377,0.51679 -0.13466,0.5282 0.0032,0.0114 -0.06182,0.25955 -0.14372,0.55086 -0.08192,0.29131 -0.14608,0.53935 -0.14314,0.55103 0.0056,0.0209 -0.05756,0.25733 -0.395676,1.4796 -0.09058,0.32608 -0.16176,0.60079 -0.1591,0.61062 0.005,0.0177 -0.277146,1.08965 -0.431776,1.64028 -0.04446,0.15858 -0.10882,0.40493 -0.1428,0.54731 -0.05794,0.24272 -0.776204,2.98254 -0.902132,3.44057 l 7.26e-4,1.9e-4 c -0.03162,0.11508 -0.0546,0.2254 -0.05044,0.24506 0.008,0.0373 0.1546,0.0821 0.914566,0.27929 0.253844,0.0661 0.464516,0.11212 0.467434,0.10316 0.02034,-0.0587 0.248752,-0.95243 0.30274,-1.18357 0.0359,-0.15482 0.12448,-0.49503 0.19628,-0.75581 0.1649,-0.59777 0.602888,-2.26685 0.684892,-2.60976 0.03406,-0.14238 0.10896,-0.41941 0.16724,-0.61529 0.05808,-0.19595 0.10238,-0.3677 0.09848,-0.38199 -0.004,-0.0145 0.06154,-0.25856 0.14546,-0.54281 0.08388,-0.2842 0.14914,-0.53013 0.14474,-0.54602 -0.0044,-0.0158 0.06026,-0.26412 0.14272,-0.55266 0.08268,-0.28849 0.14762,-0.53327 0.14492,-0.54371 -0.0026,-0.0104 0.03002,-0.14404 0.0733,-0.29673 0.04328,-0.15273 0.14046,-0.51213 0.214804,-0.79875 0.07444,-0.28661 0.208832,-0.80262 0.299052,-1.14654 0.08982,-0.34403 0.20762,-0.800514 0.261694,-1.014338 l 0.098,-0.388972 z M 60.017814,95.125738 c -0.18558,-0.04384 -0.230268,-0.03992 -0.250338,0.02037 -0.08562,0.256934 -0.564344,2.029285 -0.556244,2.059417 0.0028,0.01072 -0.04808,0.214572 -0.11358,0.452471 -0.06568,0.237846 -0.18466,0.678986 -0.264202,0.980202 -0.07954,0.301213 -0.207838,0.782925 -0.285252,1.070384 -0.07778,0.287357 -0.15528,0.591648 -0.17292,0.676128 -0.0174,0.0846 -0.08216,0.33075 -0.14422,0.54694 -0.06204,0.21618 -0.1348,0.48654 -0.16176,0.60078 -0.0563,0.23863 -0.266094,1.03701 -0.671784,2.55548 -0.06902,0.25844 -0.20824,0.79801 -0.309654,1.19845 -0.1014,0.40046 -0.212106,0.81139 -0.245604,0.9137 -0.03358,0.10226 -0.05674,0.20737 -0.05172,0.23255 0.0054,0.0253 0.11176,0.0689 0.23622,0.0975 0.1245,0.0287 0.42298,0.10658 0.663822,0.17344 0.24095,0.0665 0.449394,0.11846 0.462776,0.11488 0.0228,-0.006 0.21834,-0.71379 0.369272,-1.33534 0.03466,-0.14255 0.13434,-0.52885 0.222534,-0.85904 0.0881,-0.3302 0.212016,-0.7956 0.274632,-1.03368 0.06262,-0.23808 0.17226,-0.64434 0.242752,-0.90306 0.0705,-0.25872 0.12556,-0.4788 0.12292,-0.48952 -0.003,-0.0108 0.0621,-0.25697 0.1442,-0.54694 0.08238,-0.28988 0.14668,-0.53865 0.14278,-0.55264 -0.0038,-0.014 0.06164,-0.25854 0.14544,-0.5428 0.0838,-0.28425 0.14892,-0.53054 0.1444,-0.54765 -0.0046,-0.01712 0.05444,-0.243826 0.13122,-0.504015 0.0768,-0.260215 0.13678,-0.484092 0.13328,-0.497392 -0.0036,-0.0133 0.03212,-0.157274 0.0796,-0.320139 0.04746,-0.162832 0.151,-0.548162 0.230206,-0.856236 0.07902,-0.308105 0.210568,-0.812221 0.291936,-1.120302 0.319726,-1.211918 0.32876,-1.257732 0.26325,-1.286179 -0.0793,-0.03421 -0.773402,-0.226952 -1.073876,-0.297754 z m 2.666586,14.212422 -0.0178,0.0576 c -0.0786,0.25408 -0.15502,0.52241 -0.15286,0.54006 0.0028,0.0239 -0.09244,0.34621 -0.1839,0.62375 -0.03318,0.10068 -0.05586,0.18764 -0.05044,0.19408 0.0054,0.006 -0.0192,0.1039 -0.0534,0.21613 -0.03476,0.1121 -0.08922,0.29768 -0.12124,0.41316 -0.0321,0.11542 -0.0814,0.28531 -0.10932,0.37757 -0.02796,0.0923 -0.05964,0.2057 -0.0699,0.252 -0.0104,0.0463 -0.04174,0.1645 -0.07034,0.26253 -0.02864,0.098 -0.07728,0.26755 -0.10792,0.37717 -0.03056,0.10966 -0.08486,0.29909 -0.12034,0.42025 -0.03568,0.12106 -0.08968,0.31461 -0.1206,0.43006 -0.05992,0.22358 -0.17256,0.61832 -0.244806,0.85992 -0.0244,0.0807 -0.07096,0.25041 -0.10434,0.37738 -0.03326,0.12702 -0.0912,0.33456 -0.12818,0.46149 -0.14336,0.49091 -0.16652,0.5733 -0.22223,0.78689 -0.06612,0.254 -0.07692,0.29434 -0.14642,0.52961 -0.02832,0.0953 -0.07674,0.26311 -0.1076,0.3727 -0.1175,0.41771 -0.15296,0.54124 -0.205646,0.71375 -0.02998,0.0975 -0.05006,0.18392 -0.04514,0.19172 0.005,0.008 0.1813,0.0623 0.39195,0.12092 0.517402,0.14422 1.389788,0.38185 1.619378,0.44165 0.10288,0.0268 0.483584,0.12842 0.845456,0.22498 0.36186,0.0967 0.665976,0.17522 0.676126,0.17578 0.0172,7.8e-4 0.05664,-0.12574 0.19156,-0.60725 0.03054,-0.10966 0.08336,-0.28946 0.11742,-0.39898 0.03408,-0.1095 0.06128,-0.20862 0.05986,-0.22046 -0.0014,-0.0118 0.02532,-0.1153 0.0586,-0.23072 0.03368,-0.11528 0.13276,-0.46179 0.13276,-0.46179 0.03946,-0.13844 0.09394,-0.31856 0.12162,-0.40013 0.02744,-0.0816 0.0459,-0.15284 0.04092,-0.15864 -0.0078,-0.009 0.07598,-0.31637 0.15148,-0.55335 0.0144,-0.0462 0.04286,-0.13994 0.06226,-0.20918 0.0192,-0.0693 0.05758,-0.20605 0.08538,-0.30415 0.02782,-0.0981 0.07528,-0.26812 0.10574,-0.37776 0.03054,-0.1096 0.08858,-0.31773 0.12916,-0.462 0.0406,-0.14426 0.09874,-0.35165 0.12898,-0.46127 0.03014,-0.10966 0.07586,-0.26547 0.10176,-0.34614 0.0261,-0.0806 0.05726,-0.19292 0.0699,-0.24894 0.0122,-0.0561 0.03824,-0.1456 0.05724,-0.19912 0.0188,-0.0536 0.0411,-0.13498 0.05014,-0.18128 0.02174,-0.11164 0.11482,-0.43894 0.1899,-0.66626 0.0332,-0.10068 0.05592,-0.18794 0.05118,-0.1939 -0.005,-0.006 0.0126,-0.0743 0.03926,-0.15222 0.02668,-0.0779 0.08812,-0.29284 0.13614,-0.47761 0.04798,-0.18482 0.10946,-0.39964 0.13614,-0.47761 0.02668,-0.078 0.04452,-0.14612 0.03922,-0.15222 -0.005,-0.006 0.018,-0.0842 0.051,-0.17342 0.03274,-0.0892 0.0644,-0.20185 0.07094,-0.25022 l 0.0122,-0.088 -0.14912,-0.0453 c -0.08184,-0.0247 -0.288316,-0.0811 -0.459168,-0.12536 -0.17084,-0.0442 -0.511058,-0.13576 -0.756352,-0.20265 -1.009334,-0.27484 -1.452174,-0.39408 -1.62334,-0.43818 -0.09932,-0.0258 -0.264062,-0.0715 -0.366588,-0.10204 z m 1.838306,10.08614 c -0.322246,-0.0831 -0.780604,-0.2038 -1.018612,-0.26843 -0.23803,-0.0645 -0.443812,-0.11398 -0.457118,-0.11044 -0.0136,0.004 -0.1864,-0.0381 -0.384368,-0.0925 -0.439726,-0.1202 -1.493842,-0.39169 -1.84676,-0.47573 -0.788888,-0.18784 -1.615944,-0.40058 -1.663484,-0.42747 -0.02988,-0.017 -0.06858,-0.027 -0.08604,-0.0223 -0.0295,0.008 -0.18086,0.51426 -0.20477,0.68509 -0.0058,0.0416 -0.08846,0.36865 -0.18322,0.7266 l -0.17196,0.65053 0.12458,0.0516 c 0.06824,0.0286 0.13928,0.0483 0.15784,0.0438 0.0186,-0.005 0.30927,0.0637 0.64624,0.15108 1.131494,0.29352 1.286862,0.33343 1.964942,0.50296 0.886146,0.22177 0.837058,0.20861 1.197268,0.30556 0.17234,0.0465 0.428192,0.10764 0.568988,0.1357 0.14078,0.0281 0.316704,0.0722 0.390386,0.0984 0.14814,0.0526 1.019936,0.2619 1.053996,0.25275 0.0118,-0.003 0.06226,-0.17544 0.11246,-0.38205 0.04978,-0.20669 0.1617,-0.65156 0.248256,-0.98904 0.08658,-0.33749 0.15266,-0.62985 0.14752,-0.64947 -0.0052,-0.0196 -0.273302,-0.10386 -0.595568,-0.18696 z m -4.581792,1.52071 c -0.309134,-0.084 -0.584252,-0.14002 -0.610686,-0.12482 -0.04354,0.0251 -0.11838,0.28363 -0.349126,1.20081 -0.07732,0.30723 -0.14486,0.56148 -0.44227,1.66484 -0.08362,0.30913 -0.18228,0.68317 -0.219606,0.83169 -0.13082,0.51676 -0.255858,0.98013 -0.373386,1.38138 -0.06484,0.22215 -0.11428,0.41338 -0.10994,0.42456 0.0042,0.0112 -0.04272,0.1913 -0.10486,0.40005 -0.06212,0.20875 -0.10966,0.38843 -0.10594,0.39825 0.0038,0.01 -0.04872,0.2038 -0.11632,0.43121 -0.0677,0.22739 -0.11936,0.42348 -0.11456,0.43625 0.0046,0.0124 -0.0434,0.19052 -0.10662,0.39502 -0.06306,0.20453 -0.11652,0.40516 -0.11886,0.4465 -0.0026,0.0413 -0.0361,0.1709 -0.07398,0.28817 -0.03844,0.1171 -0.09558,0.32377 -0.12676,0.45884 l 4.16423,1.16299 c 0.07116,-0.27432 0.552498,-1.9495 0.616628,-2.17422 0.0641,-0.22473 0.11376,-0.41576 0.1101,-0.42528 -0.0034,-0.009 0.03702,-0.17182 0.08996,-0.36145 0.23613,-0.84277 0.355842,-1.29275 0.349322,-1.3095 -0.0038,-0.01 0.04908,-0.20319 0.11742,-0.4294 0.06834,-0.22616 0.12108,-0.41975 0.11686,-0.4303 -0.0042,-0.0104 0.05174,-0.23158 0.12398,-0.49152 0.268994,-0.96541 0.32181,-1.16252 0.315792,-1.17855 -0.0034,-0.009 0.04894,-0.2027 0.11632,-0.43121 0.06746,-0.22851 0.1192,-0.42406 0.1149,-0.43464 -0.0042,-0.0104 0.03206,-0.14852 0.07974,-0.30639 0.10936,-0.36159 0.231298,-0.8574 0.21199,-0.86492 -0.02636,-0.0104 -0.897182,-0.24727 -1.478554,-0.40241 -1.291474,-0.3441 -1.53736,-0.41038 -2.07542,-0.5561 z"
       id="path4728"
       sodipodi:nodetypes="ccccccccccccccccccccccccccccccccccccccccccccccccccccscccccccccccccccccccccccccccccccccccccccccccccccccccccccccccccccccccccccccccccccccccccccccccccccccccccccccccccccccccccccccccccscccccccccccccccccccccccccccccccccccccccccccccccccccccccccccccccccccccccccccccccccccccccccccccccccccccccccccccccccccccccccccc" />
    <text
       xml:space="preserve"
       style="font-style:normal;font-variant:normal;font-weight:500;font-stretch:normal;font-size:8.46667px;line-height:4.23333px;font-family:Montserrat;-inkscape-font-specification:'Montserrat Medium';text-align:center;text-anchor:middle;opacity:1;fill:#eeeeee;fill-opacity:1;fill-rule:nonzero;stroke:none;stroke-width:4.23333;stroke-linecap:butt;stroke-linejoin:round;stroke-miterlimit:4;stroke-dasharray:none;stroke-dashoffset:0;stroke-opacity:1;paint-order:stroke fill markers"
       x="-355.53735"
       y="24.113144"
       id="text4627-36-3"><tspan
         sodipodi:role="line"
         id="tspan4625-0-6"
         x="-355.53735"
         y="24.113144"
         style="font-style:normal;font-variant:normal;font-weight:500;font-stretch:normal;font-size:8.46667px;font-family:Montserrat;-inkscape-font-specification:'Montserrat Medium';text-align:center;text-anchor:middle;fill:#eeeeee;fill-opacity:1;stroke-width:4.23333">ORD</tspan></text>
    <path
       style="fill:#000000;stroke-width:0.264583"
       d="m 225.28494,144.00416 c 0.34733,-0.5231 0.28919,-0.59245 -1.03569,-1.23549 -0.77201,-0.37471 -2.05323,-0.81852 -2.84715,-0.98625 -1.59372,-0.33669 -5.98814,-0.18801 -6.39244,0.21629 -0.16165,0.16165 -0.15984,0.49996 0.005,0.93351 0.24657,0.64855 0.31127,0.66781 1.39889,0.41643 1.76499,-0.40793 4.62015,-0.12431 6.43203,0.63892 1.82092,0.76704 1.94054,0.76785 2.43936,0.0166 z"
       id="path67" />
    <path
       style="fill:#000000;stroke-width:0.264583"
       d="m 217.76189,149.6421 c -3.84643,-1.25254 -6.87906,-4.77493 -7.56657,-8.78855 -1.2275,-7.1661 5.26318,-13.67588 12.48538,-12.52213 3.65235,0.58346 6.71506,2.89074 8.31177,6.26162 0.78818,1.66396 0.84895,1.99149 0.84895,4.57593 0,2.63421 -0.0486,2.88238 -0.90477,4.62153 -1.16212,2.36061 -2.97489,4.1686 -5.24924,5.23538 -1.54909,0.72661 -2.11383,0.84593 -4.29703,0.90792 -1.59958,0.0454 -2.91896,-0.0606 -3.62849,-0.2917 z"
       id="path65" />
    <path
       style="fill:#000000;stroke-width:0.264583"
       d="m 215.15395,219.36052 c -1.34835,-0.61241 -2.62098,-2.13073 -2.98578,-3.56221 -0.15367,-0.603 -0.71456,-7.58527 -1.24642,-15.51615 -0.53186,-7.93089 -1.08103,-14.8794 -1.22037,-15.44114 l -0.25336,-1.02135 -0.6174,0.58001 c -1.38448,1.30066 -3.90163,0.85387 -4.82764,-0.8569 -0.41629,-0.76906 -0.46291,-1.80357 -0.46189,-10.24812 8e-4,-7.43509 0.0953,-10.05484 0.45294,-12.56961 1.16912,-8.22087 3.03187,-11.89387 6.56388,-12.94276 l 1.3699,-0.40682 1.19275,1.0499 c 4.41037,3.88217 11.31059,3.89305 15.7799,0.0249 1.14953,-0.99492 1.2567,-1.03238 2.20687,-0.77146 3.84096,1.05473 5.56904,4.18807 6.87644,12.46831 0.38481,2.43716 0.46795,4.69324 0.46988,12.75067 0.002,8.86273 -0.0419,9.87057 -0.46515,10.645 -0.91158,1.668 -2.88497,2.11601 -4.49822,1.02122 l -0.93853,-0.6369 -0.1619,0.57076 c -0.0891,0.31391 -0.63414,7.29778 -1.21132,15.51971 -0.57718,8.22193 -1.17554,15.39742 -1.32968,15.94553 -0.8797,3.12814 -4.75676,4.79423 -7.68603,3.30291 l -1.16932,-0.5953 -1.18054,0.59531 c -1.44538,0.72886 -3.18466,0.76414 -4.65901,0.0945 z"
       id="path63" />
    <rect
       y="95.143448"
       x="-98.048813"
       height="52.916668"
       width="52.916668"
       id="rect5163"
       style="fill:#222222;fill-opacity:1;fill-rule:nonzero;stroke:none;stroke-width:0.5;stroke-linecap:butt;stroke-linejoin:round;stroke-miterlimit:4;stroke-dasharray:none;stroke-dashoffset:0;stroke-opacity:0.909449;paint-order:normal"
       rx="3.96875"
       ry="3.96875" />
    <rect
       style="fill:#784421;fill-opacity:1;fill-rule:nonzero;stroke:none;stroke-width:0.5;stroke-linecap:butt;stroke-linejoin:round;stroke-miterlimit:4;stroke-dasharray:none;stroke-dashoffset:0;stroke-opacity:0.909449;paint-order:normal"
       id="rect5165"
       width="47.625"
       height="47.625"
       x="-95.402977"
       y="97.789284"
       rx="2.6458333"
       ry="2.6458333" />
    <g
       id="g96"
       transform="matrix(0.65566358,0,0,0.65566358,-59.17624,32.374543)">
      <path
         style="fill:#ffffff;stroke-width:0.181694"
         d="m -18.377342,151.5279 c 0.763832,-0.76384 0.210741,-2.18034 -0.85134,-2.18034 -0.626178,0 -1.328994,0.65915 -1.328994,1.24639 0,1.07981 1.424352,1.68993 2.180334,0.93395 z"
         id="path59" />
      <path
         id="path55"
         style="fill:#ffffff;stroke-width:0.450256"
         d="m 301.33008,97.541016 v 1.535156 c 0,0.933298 -0.35239,1.885588 -0.90039,2.433598 -1.87168,1.87168 -5.40235,0.52744 -5.40235,-2.056645 0,-1.558972 -0.38139,-1.433748 -9.68164,3.183595 -4.81295,2.38951 -8.44817,3.9082 -9.79297,4.08984 l -2.13867,0.28906 v 10.26563 c 0,4.1869 -0.12347,8.17156 -0.58594,15.30078 h 50.78321 c -0.5173,-7.73809 -0.66797,-11.93783 -0.66797,-15.87305 v -9.61523 l -2.72266,-0.5625 c -1.49681,-0.30917 -4.28315,-1.39374 -6.1914,-2.41016 -1.90825,-1.01636 -5.54568,-2.91391 -8.08399,-4.21484 z"
         transform="matrix(0.4035352,0,0,0.4035352,-139.61128,99.300185)" />
      <path
         style="fill:#ffffff;stroke-width:0.181694"
         d="m -21.741065,121.94827 c -2.292621,-0.79278 -3.961156,-2.2664 -4.971643,-4.39089 -0.563248,-1.18422 -0.654533,-1.57127 -0.719181,-3.04939 -0.04436,-1.01409 0.0149,-2.01084 0.147865,-2.48561 0.301661,-1.07743 0.128237,-1.55744 -0.562698,-1.55744 -1.454795,0 -2.034496,-0.97253 -1.617012,-2.71278 0.652212,-2.71873 3.262885,-5.27047 6.453178,-6.3075 1.192461,-0.38762 1.828885,-0.47663 3.543047,-0.49558 1.230794,-0.0137 2.500167,0.0783 3.088809,0.22385 2.914245,0.72021 5.487227,2.67038 6.6635844,5.05058 1.227765,2.48421 1.004203,3.96756 -0.6310064,4.18689 -0.948421,0.1272 -1.232634,0.53323 -0.966503,1.38073 1.022264,3.25551 -0.396147,7.15929 -3.302125,9.08817 -2.042504,1.35573 -5.009805,1.80082 -7.126315,1.06897 z"
         id="path77" />
      <path
         style="fill:#784421;stroke-width:0.181694;fill-opacity:1"
         d="m -18.090238,105.13091 c 0.207877,-0.23578 0.759738,-0.65243 1.226357,-0.92589 1.191583,-0.69832 1.227381,-0.86483 0.155351,-0.72262 -0.812851,0.10783 -0.928851,0.0789 -1.120686,-0.27956 -0.117696,-0.2199 -0.493573,-0.51666 -0.835291,-0.65944 -0.537544,-0.22461 -0.704677,-0.22476 -1.239728,-8.2e-4 -0.340132,0.14213 -0.675938,0.43962 -0.746237,0.66111 -0.117649,0.37066 -0.205769,0.39353 -1.10768,0.28753 -0.538923,-0.0633 -0.979859,-0.0743 -0.979859,-0.0243 0,0.05 0.429255,0.33381 0.953895,0.63073 0.524646,0.29691 1.059141,0.71019 1.18777,0.91838 0.506401,0.81963 1.831359,0.88056 2.506108,0.11523 z"
         id="path83" />
      <path
         style="fill:#784421;stroke-width:0.181694;fill-opacity:1"
         d="m -25.590608,108.76511 c 3.053044,-1.27284 9.847378,-1.22739 12.839162,0.0859 0.446038,0.1958 0.94965,0.48149 1.119132,0.63487 0.27975,0.25316 0.319421,0.24334 0.430519,-0.10668 0.551394,-1.73729 -4.893207,-3.21917 -10.043232,-2.73351 -4.063944,0.38324 -6.382563,1.44224 -6.080297,2.7771 0.0684,0.30211 0.100447,0.30069 0.55842,-0.0247 0.267215,-0.18983 0.796545,-0.47468 1.176296,-0.63299 z"
         id="path81" />
      <path
         style="fill:#784421;stroke-width:0.181694;fill-opacity:1"
         d="m -18.872398,116.88601 c 0.980086,-0.25283 3.276841,-0.35844 4.3841,-0.20162 0.243346,0.0345 0.386953,-0.0994 0.484062,-0.4511 0.12126,-0.43921 0.07913,-0.51616 -0.345997,-0.63195 -1.050427,-0.28605 -3.718861,-0.1314 -5.112695,0.29633 -1.097378,0.33676 -2.956658,1.13161 -3.24418,1.38691 -0.03297,0.0293 0.07688,0.26203 0.244115,0.51727 l 0.304045,0.46404 1.077779,-0.54407 c 0.592783,-0.29923 1.586727,-0.67534 2.208771,-0.83581 z"
         id="path79" />
      <path
         style="fill:#ffffff;stroke-width:0.181694"
         d="m -20.693949,127.80017 c -0.679378,-0.34669 -0.704711,-0.5595 -0.257574,-2.16374 l 0.303852,-1.09016 1.383424,-0.0526 1.383424,-0.0526 0.368885,1.46889 0.368886,1.46888 -0.457637,0.29987 c -0.655398,0.42942 -2.358683,0.49635 -3.09326,0.12151 z"
         id="path75" />
      <path
         style="fill:#ffffff;stroke-width:0.181694"
         d="m -21.048179,131.06942 c 0.05308,-0.19006 0.147597,-0.72233 0.209965,-1.18287 l 0.11339,-0.83732 0.719504,0.13158 c 0.395729,0.0723 1.047701,0.0716 1.448827,-0.002 0.801154,-0.1465 0.747734,-0.21727 0.994541,1.31775 l 0.109553,0.68136 H -18.4346 c -0.540202,0 -1.370981,0.0532 -1.84617,0.11843 -0.789453,0.10818 -0.855653,0.0886 -0.767409,-0.22713 z"
         id="path73" />
      <path
         style="fill:#ffffff;stroke-width:0.181694"
         d="m -11.291254,141.19239 c -0.449699,-0.17889 -1.617616,-0.77866 -2.595382,-1.33282 l -1.777759,-1.00751 0.653517,-0.1226 c 0.943347,-0.17698 2.35012,-1.58859 2.629991,-2.63904 0.118851,-0.44608 0.172491,-1.07973 0.119202,-1.40813 -0.05329,-0.32839 -0.04855,-0.59708 0.01051,-0.59708 0.05906,0 0.634185,0.29461 1.27804,0.65467 0.807486,0.45157 1.2290504,0.59629 1.3588734,0.46645 0.363948,-0.36394 -0.02822,-0.71708 -1.8162764,-1.63556 -0.992674,-0.50989 -1.913372,-1.05781 -2.045986,-1.21763 -0.132619,-0.15978 -0.467429,-0.40755 -0.744018,-0.55058 l -0.502906,-0.26006 0.340929,-0.7727 c 0.572064,-1.2966 0.789219,-3.01945 0.563749,-4.47268 -0.108839,-0.70146 -0.197886,-1.33337 -0.197886,-1.40425 0,-0.21956 3.306082,0.0794 4.3606704,0.39437 1.439755,0.42997 2.294816,0.90771 3.288837,1.83749 1.721612,1.61036 2.651864,3.63222 2.82629,6.14288 0.374701,5.39321 -3.683557,9.54282 -7.7503784,7.92479 z"
         id="path71" />
      <path
         style="fill:#ffffff;stroke-width:0.181694"
         d="m -30.974517,141.18691 c -1.132311,-0.57728 -1.922746,-1.26944 -2.577773,-2.25722 -2.241013,-3.37952 -1.900167,-8.16879 0.799115,-11.22845 1.532662,-1.73729 3.530177,-2.60794 6.454943,-2.81353 l 1.697535,-0.11932 -0.08955,2.06926 c -0.08072,1.86515 -0.04552,2.19473 0.356489,3.34114 0.245317,0.69952 0.502536,1.39796 0.571592,1.55207 0.0977,0.218 -0.188038,0.40952 -1.28751,0.86296 -1.588746,0.65523 -4.04911,1.9806 -4.044873,2.17891 0.01339,0.62718 0.387571,0.54252 2.644137,-0.59837 3.376016,-1.70686 5.147402,-2.12826 8.618145,-2.05023 2.926606,0.0658 3.461649,0.22694 4.200903,1.26512 0.624153,0.87654 0.685848,2.41169 0.129803,3.22986 -0.799677,1.17668 -1.330313,1.34499 -4.313003,1.36795 -2.443334,0.0189 -2.758985,0.0609 -4.006885,0.53409 -0.745029,0.2825 -2.136693,0.9505 -3.092586,1.48442 -0.955893,0.53393 -2.094054,1.09641 -2.529249,1.24997 -1.105756,0.39011 -2.691885,0.35931 -3.531243,-0.0687 z"
         id="path69" />
      <path
         style="fill:#784421;stroke-width:0.181694;fill-opacity:1"
         d="m -18.377342,145.89536 c 0.763832,-0.76384 0.210741,-2.18032 -0.85134,-2.18032 -0.626178,0 -1.328994,0.65913 -1.328994,1.24639 0,1.07981 1.424352,1.68993 2.180334,0.93393 z"
         id="path61" />
    </g>
    <path
       style="fill:#222222;fill-opacity:1;fill-rule:nonzero;stroke:none;stroke-width:0.5;stroke-linecap:butt;stroke-linejoin:round;stroke-miterlimit:4;stroke-dasharray:none;stroke-dashoffset:0;stroke-opacity:0.909449;paint-order:normal"
       d="m -96.593602,132.18512 v 8.33438 c 0,3.07816 2.478088,5.55624 5.55625,5.55624 h 38.893748 c 3.078162,0 5.55625,-2.47808 5.55625,-5.55624 v -8.33438 z"
       id="rect5205-3-6"
       inkscape:connector-curvature="0" />
    <g
       aria-label="AUTHORITARIANISM"
       id="text122"
       style="font-size:4.11644px;line-height:1.25;font-family:sans-serif;stroke-width:0.0643194">
      <path
         d="m -92.786552,141.00919 h -0.797962 l -0.207028,-0.60501 h -1.109509 l -0.207028,0.60501 h -0.777863 l 1.10549,-2.99286 h 0.888411 z m -1.191918,-1.15373 -0.367827,-1.07333 -0.367826,1.07333 z"
         style="font-style:normal;font-variant:normal;font-weight:bold;font-stretch:normal;font-family:sans-serif;-inkscape-font-specification:'sans-serif Bold';fill:#ffffff;stroke-width:0.0643194"
         id="path151" />
      <path
         d="m -89.735402,139.92581 q 0,0.55475 -0.337676,0.85022 -0.337677,0.29547 -0.994941,0.29547 -0.657263,0 -0.99494,-0.29547 -0.335667,-0.29547 -0.335667,-0.84821 v -1.91149 h 0.775853 v 1.86727 q 0,0.31154 0.130648,0.4643 0.130649,0.15276 0.424106,0.15276 0.289437,0 0.422096,-0.14673 0.134669,-0.14673 0.134669,-0.47033 v -1.86727 h 0.775852 z"
         style="font-style:normal;font-variant:normal;font-weight:bold;font-stretch:normal;font-family:sans-serif;-inkscape-font-specification:'sans-serif Bold';fill:#ffffff;stroke-width:0.0643194"
         id="path153" />
      <path
         d="m -86.672191,138.5952 h -0.934641 v 2.41399 h -0.771833 v -2.41399 h -0.934641 v -0.57887 h 2.641115 z"
         style="font-style:normal;font-variant:normal;font-weight:bold;font-stretch:normal;font-family:sans-serif;-inkscape-font-specification:'sans-serif Bold';fill:#ffffff;stroke-width:0.0643194"
         id="path155" />
      <path
         d="m -83.524563,141.00919 h -0.771832 v -1.31855 h -1.139659 v 1.31855 h -0.771832 v -2.99286 h 0.771832 v 1.09543 h 1.139659 v -1.09543 h 0.771832 z"
         style="font-style:normal;font-variant:normal;font-weight:bold;font-stretch:normal;font-family:sans-serif;-inkscape-font-specification:'sans-serif Bold';fill:#ffffff;stroke-width:0.0643194"
         id="path157" />
      <path
         d="m -79.850318,139.51376 q 0,0.71555 -0.410036,1.13765 -0.410036,0.42009 -1.133629,0.42009 -0.721583,0 -1.131619,-0.42009 -0.410036,-0.4221 -0.410036,-1.13765 0,-0.72158 0.410036,-1.13966 0.410036,-0.42008 1.131619,-0.42008 0.719573,0 1.131619,0.42008 0.412046,0.41808 0.412046,1.13966 z m -1.02308,0.75776 q 0.112559,-0.13668 0.166828,-0.32159 0.05427,-0.18693 0.05427,-0.43818 0,-0.26934 -0.06231,-0.45828 -0.06231,-0.18893 -0.162808,-0.30551 -0.102509,-0.1206 -0.237178,-0.17487 -0.132658,-0.0543 -0.277377,-0.0543 -0.146729,0 -0.277377,0.0523 -0.128639,0.0523 -0.237178,0.17286 -0.100499,0.11256 -0.164818,0.31154 -0.06231,0.19698 -0.06231,0.45828 0,0.26733 0.0603,0.45627 0.06231,0.18692 0.162808,0.30551 0.100499,0.11859 0.235168,0.17487 0.134669,0.0563 0.283407,0.0563 0.148739,0 0.283407,-0.0563 0.134669,-0.0583 0.235168,-0.17889 z"
         style="font-style:normal;font-variant:normal;font-weight:bold;font-stretch:normal;font-family:sans-serif;-inkscape-font-specification:'sans-serif Bold';fill:#ffffff;stroke-width:0.0643194"
         id="path159" />
      <path
         d="m -77.58306,138.93288 q 0,-0.11256 -0.04623,-0.19296 -0.04623,-0.0804 -0.158789,-0.12663 -0.07839,-0.0322 -0.182908,-0.0382 -0.104519,-0.008 -0.243208,-0.008 h -0.279387 v 0.806 h 0.237178 q 0.184918,0 0.309537,-0.0181 0.124619,-0.0181 0.209038,-0.0824 0.0804,-0.0623 0.116579,-0.13668 0.03819,-0.0764 0.03819,-0.203 z m 1.203979,2.07631 h -0.942681 l -0.816052,-1.09745 h -0.355767 v 1.09745 h -0.767812 v -2.99286 h 1.294427 q 0.265317,0 0.456266,0.0301 0.190948,0.0301 0.357776,0.13065 0.168838,0.1005 0.267328,0.2613 0.100499,0.15879 0.100499,0.39999 0,0.33164 -0.154769,0.54068 -0.152758,0.20904 -0.438176,0.34773 z"
         style="font-style:normal;font-variant:normal;font-weight:bold;font-stretch:normal;font-family:sans-serif;-inkscape-font-specification:'sans-serif Bold';fill:#ffffff;stroke-width:0.0643194"
         id="path161" />
      <path
         d="m -74.423371,141.00919 h -1.752703 v -0.53064 h 0.490435 v -1.93159 h -0.490435 v -0.53063 h 1.752703 v 0.53063 h -0.490435 v 1.93159 h 0.490435 z"
         style="font-style:normal;font-variant:normal;font-weight:bold;font-stretch:normal;font-family:sans-serif;-inkscape-font-specification:'sans-serif Bold';fill:#ffffff;stroke-width:0.0643194"
         id="path163" />
      <path
         d="m -71.45262,138.5952 h -0.934641 v 2.41399 h -0.771833 v -2.41399 h -0.93464 v -0.57887 h 2.641114 z"
         style="font-style:normal;font-variant:normal;font-weight:bold;font-stretch:normal;font-family:sans-serif;-inkscape-font-specification:'sans-serif Bold';fill:#ffffff;stroke-width:0.0643194"
         id="path165" />
      <path
         d="m -68.222581,141.00919 h -0.797963 l -0.207028,-0.60501 h -1.109509 l -0.207028,0.60501 h -0.777862 l 1.105489,-2.99286 h 0.888411 z m -1.191919,-1.15373 -0.367826,-1.07333 -0.367827,1.07333 z"
         style="font-style:normal;font-variant:normal;font-weight:bold;font-stretch:normal;font-family:sans-serif;-inkscape-font-specification:'sans-serif Bold';fill:#ffffff;stroke-width:0.0643194"
         id="path167" />
      <path
         d="m -66.114113,138.93288 q 0,-0.11256 -0.04623,-0.19296 -0.04623,-0.0804 -0.158788,-0.12663 -0.07839,-0.0322 -0.182908,-0.0382 -0.104519,-0.008 -0.243208,-0.008 h -0.279387 v 0.806 h 0.237177 q 0.184919,0 0.309537,-0.0181 0.124619,-0.0181 0.209038,-0.0824 0.0804,-0.0623 0.116579,-0.13668 0.03819,-0.0764 0.03819,-0.203 z m 1.203978,2.07631 h -0.942681 l -0.816052,-1.09745 h -0.355766 v 1.09745 h -0.767813 v -2.99286 h 1.294428 q 0.265317,0 0.456265,0.0301 0.190948,0.0301 0.357777,0.13065 0.168838,0.1005 0.267327,0.2613 0.100499,0.15879 0.100499,0.39999 0,0.33164 -0.154768,0.54068 -0.152759,0.20904 -0.438176,0.34773 z"
         style="font-style:normal;font-variant:normal;font-weight:bold;font-stretch:normal;font-family:sans-serif;-inkscape-font-specification:'sans-serif Bold';fill:#ffffff;stroke-width:0.0643194"
         id="path169" />
      <path
         d="m -62.954423,141.00919 h -1.752703 v -0.53064 h 0.490435 v -1.93159 h -0.490435 v -0.53063 h 1.752703 v 0.53063 h -0.490435 v 1.93159 h 0.490435 z"
         style="font-style:normal;font-variant:normal;font-weight:bold;font-stretch:normal;font-family:sans-serif;-inkscape-font-specification:'sans-serif Bold';fill:#ffffff;stroke-width:0.0643194"
         id="path171" />
      <path
         d="m -59.559566,141.00919 h -0.797962 l -0.207028,-0.60501 h -1.109509 l -0.207028,0.60501 h -0.777863 l 1.105489,-2.99286 h 0.888412 z m -1.191918,-1.15373 -0.367827,-1.07333 -0.367826,1.07333 z"
         style="font-style:normal;font-variant:normal;font-weight:bold;font-stretch:normal;font-family:sans-serif;-inkscape-font-specification:'sans-serif Bold';fill:#ffffff;stroke-width:0.0643194"
         id="path173" />
      <path
         d="m -56.407916,141.00919 h -0.743693 l -1.270307,-2.0542 v 2.0542 h -0.707514 v -2.99286 h 0.922581 l 1.09142,1.71451 v -1.71451 h 0.707513 z"
         style="font-style:normal;font-variant:normal;font-weight:bold;font-stretch:normal;font-family:sans-serif;-inkscape-font-specification:'sans-serif Bold';fill:#ffffff;stroke-width:0.0643194"
         id="path175" />
      <path
         d="m -54.02609,141.00919 h -1.752702 v -0.53064 h 0.490435 v -1.93159 h -0.490435 v -0.53063 h 1.752702 v 0.53063 h -0.490435 v 1.93159 h 0.490435 z"
         style="font-style:normal;font-variant:normal;font-weight:bold;font-stretch:normal;font-family:sans-serif;-inkscape-font-specification:'sans-serif Bold';fill:#ffffff;stroke-width:0.0643194"
         id="path177" />
      <path
         d="m -51.001069,140.06851 q 0,0.4422 -0.375866,0.71958 -0.373857,0.27537 -1.017051,0.27537 -0.371846,0 -0.649223,-0.0643 -0.275367,-0.0663 -0.516565,-0.16683 v -0.71757 h 0.08442 q 0.239188,0.19095 0.534655,0.29346 0.297477,0.10251 0.570834,0.10251 0.07035,0 0.184918,-0.0121 0.114569,-0.0121 0.186929,-0.0402 0.08844,-0.0362 0.144718,-0.0905 0.05829,-0.0543 0.05829,-0.1608 0,-0.0985 -0.08442,-0.16883 -0.08241,-0.0724 -0.243207,-0.11055 -0.168839,-0.0402 -0.357777,-0.0744 -0.186928,-0.0362 -0.351746,-0.0905 -0.377877,-0.12261 -0.544705,-0.33165 -0.164818,-0.21105 -0.164818,-0.52259 0,-0.41808 0.373856,-0.68139 0.375866,-0.26531 0.964791,-0.26531 0.295467,0 0.582894,0.0583 0.289437,0.0563 0.500485,0.14271 v 0.68943 h -0.08241 q -0.180898,-0.14472 -0.444206,-0.2412 -0.261297,-0.0985 -0.534655,-0.0985 -0.09648,0 -0.192958,0.0141 -0.09447,0.0121 -0.182908,0.0482 -0.07839,0.0302 -0.134669,0.0925 -0.05628,0.0603 -0.05628,0.13869 0,0.11859 0.09045,0.18291 0.09045,0.0623 0.341697,0.11456 0.164818,0.0342 0.315567,0.0663 0.152758,0.0322 0.327626,0.0884 0.343707,0.11256 0.506515,0.30753 0.164819,0.19296 0.164819,0.50249 z"
         style="font-style:normal;font-variant:normal;font-weight:bold;font-stretch:normal;font-family:sans-serif;-inkscape-font-specification:'sans-serif Bold';fill:#ffffff;stroke-width:0.0643194"
         id="path179" />
      <path
         d="m -47.334864,141.00919 h -0.767812 v -2.00395 l -0.554755,1.30045 h -0.532645 l -0.554754,-1.30045 v 2.00395 h -0.727613 v -2.99286 h 0.896451 l 0.673343,1.50145 0.671334,-1.50145 h 0.896451 z"
         style="font-style:normal;font-variant:normal;font-weight:bold;font-stretch:normal;font-family:sans-serif;-inkscape-font-specification:'sans-serif Bold';fill:#ffffff;stroke-width:0.0643194"
         id="path181" />
    </g>
  </g>
</svg>
