<?xml version="1.0" encoding="UTF-8" standalone="no"?>
<svg
   xmlns:dc="http://purl.org/dc/elements/1.1/"
   xmlns:cc="http://creativecommons.org/ns#"
   xmlns:rdf="http://www.w3.org/1999/02/22-rdf-syntax-ns#"
   xmlns:svg="http://www.w3.org/2000/svg"
   xmlns="http://www.w3.org/2000/svg"
   xmlns:sodipodi="http://sodipodi.sourceforge.net/DTD/sodipodi-0.dtd"
   xmlns:inkscape="http://www.inkscape.org/namespaces/inkscape"
   width="200"
   height="200"
   viewBox="0 0 52.916668 52.916666"
   version="1.1"
   id="svg8"
   inkscape:version="1.0.2-2 (e86c870879, 2021-01-15)"
   sodipodi:docname="equality.svg">
  <defs
     id="defs2">
    <inkscape:path-effect
       effect="envelope"
       id="path-effect4658"
       is_visible="true"
       yy="true"
       xx="true"
       bendpath1="m -199.08406,108.42369 h 7.0057"
       bendpath2="m -192.07836,108.42369 v 6.75242"
       bendpath3="m -199.08406,115.17611 h 7.0057"
       bendpath4="m -199.08406,108.42369 v 6.75242" />
    <inkscape:path-effect
       effect="bend_path"
       id="path-effect4656"
       is_visible="true"
       bendpath="m -192.00142,114.60623 c 2.12577,-0.53066 4.48261,0.85111 7.0057,0"
       prop_scale="1"
       scale_y_rel="false"
       vertical="false"
       bendpath-nodetypes="cc" />
    <inkscape:path-effect
       effect="bounding_box"
       id="path-effect4654"
       is_visible="true"
       linkedpath=""
       visualbounds="false" />
  </defs>
  <sodipodi:namedview
     id="base"
     pagecolor="#ffffff"
     bordercolor="#666666"
     borderopacity="1.0"
     inkscape:pageopacity="0.0"
     inkscape:pageshadow="2"
     inkscape:zoom="2"
     inkscape:cx="-0.82385004"
     inkscape:cy="130.66698"
     inkscape:document-units="px"
     inkscape:current-layer="layer1"
     showgrid="false"
     fit-margin-top="0"
     fit-margin-left="0"
     fit-margin-right="0"
     fit-margin-bottom="0"
     inkscape:window-width="1920"
     inkscape:window-height="1017"
     inkscape:window-x="-8"
     inkscape:window-y="-8"
     inkscape:window-maximized="1"
     showguides="false"
     inkscape:object-nodes="false"
     units="px"
     inkscape:document-rotation="0" />
  <metadata
     id="metadata5">
    <rdf:RDF>
      <cc:Work
         rdf:about="">
        <dc:format>image/svg+xml</dc:format>
        <dc:type
           rdf:resource="http://purl.org/dc/dcmitype/StillImage" />
        <dc:title />
      </cc:Work>
    </rdf:RDF>
  </metadata>
  <g
     inkscape:label="Layer 1"
     inkscape:groupmode="layer"
     id="layer1"
     transform="translate(39.608708,-92.411388)">
    <g
       style="stroke-width:0.5"
       id="g4561"
       transform="matrix(2,0,0,2,-39.608708,92.411388)">
      <rect
         y="-1.110223e-16"
         x="0"
         height="26.458334"
         width="26.458334"
         id="rect4485"
         style="opacity:1;fill:#222222;fill-opacity:1;fill-rule:nonzero;stroke:none;stroke-width:0.25;stroke-linecap:butt;stroke-linejoin:round;stroke-miterlimit:4;stroke-dasharray:none;stroke-dashoffset:0;stroke-opacity:0.90944878;paint-order:normal"
         rx="1.984375"
         ry="1.984375" />
      <rect
         style="opacity:1;fill:#f44336;fill-opacity:1;fill-rule:nonzero;stroke:none;stroke-width:0.25;stroke-linecap:butt;stroke-linejoin:round;stroke-miterlimit:4;stroke-dasharray:none;stroke-dashoffset:0;stroke-opacity:0.90944878;paint-order:normal"
         id="rect4487"
         width="23.8125"
         height="23.8125"
         x="1.322917"
         y="1.322917"
         rx="1.3229166"
         ry="1.3229166" />
      <path
         style="opacity:1;fill:#222222;fill-opacity:1;fill-rule:nonzero;stroke:none;stroke-width:0.24999999;stroke-linecap:butt;stroke-linejoin:round;stroke-miterlimit:4;stroke-dasharray:none;stroke-dashoffset:0;stroke-opacity:0.90944878;paint-order:normal"
         d="m 0.72760467,18.520836 v 4.167188 c 0,1.539081 1.23904383,2.778124 2.77812503,2.778124 H 22.952604 c 1.539081,0 2.778125,-1.239043 2.778125,-2.778124 v -4.167188 z"
         id="rect5205-3"
         inkscape:connector-curvature="0" />
      <g
         id="text4491"
         style="font-style:normal;font-variant:normal;font-weight:500;font-stretch:normal;font-size:4.23333311px;line-height:4.23333311px;font-family:Montserrat;-inkscape-font-specification:'Montserrat Medium';text-align:center;text-anchor:middle;opacity:1;fill:#eeeeee;fill-opacity:1;fill-rule:nonzero;stroke:none;stroke-width:0.25;stroke-linecap:butt;stroke-linejoin:round;stroke-miterlimit:4;stroke-dasharray:none;stroke-dashoffset:0;stroke-opacity:0.90944878;paint-order:normal"
         aria-label="EQUALITY" />
      <g
         aria-label="SOCIALISM"
         id="text28"
         style="font-size:3.73271px;line-height:1.25;font-family:sans-serif;fill:#ffffff;stroke-width:0.0291618">
        <path
           d="m 3.8519615,22.822839 q 0,0.400974 -0.3408285,0.652495 -0.3390058,0.249698 -0.9222418,0.249698 -0.3371832,0 -0.5887037,-0.05832 -0.2496979,-0.06015 -0.4684114,-0.151277 v -0.650672 h 0.07655 q 0.2168908,0.173148 0.4848148,0.266101 0.2697466,0.09295 0.5176219,0.09295 0.063791,0 0.1676803,-0.01093 0.1038889,-0.01094 0.169503,-0.03645 0.080195,-0.03281 0.131228,-0.08202 0.052856,-0.04921 0.052856,-0.145809 0,-0.08931 -0.07655,-0.153099 -0.074727,-0.06561 -0.2205361,-0.100244 -0.1530994,-0.03645 -0.324425,-0.06744 -0.1695029,-0.03281 -0.3189571,-0.08202 -0.3426511,-0.11118 -0.4939279,-0.300731 -0.1494542,-0.191375 -0.1494542,-0.473879 0,-0.379104 0.3390058,-0.617866 0.3408285,-0.240585 0.8748539,-0.240585 0.267924,0 0.5285576,0.05286 0.2624561,0.05103 0.4538304,0.129405 v 0.625156 H 3.6697003 Q 3.5056652,21.58893 3.266903,21.501445 q -0.2369396,-0.08931 -0.4848149,-0.08931 -0.087485,0 -0.1749707,0.01276 -0.085663,0.01094 -0.1658577,0.04374 -0.071082,0.02734 -0.1221151,0.08384 -0.051033,0.05468 -0.051033,0.12576 0,0.107534 0.082018,0.165858 0.082018,0.0565 0.3098441,0.103889 0.1494542,0.03098 0.2861501,0.06015 0.1385186,0.02916 0.2970858,0.08019 0.3116667,0.102066 0.4592983,0.27886 0.1494542,0.17497 0.1494542,0.455653 z"
           style="font-style:normal;font-variant:normal;font-weight:bold;font-stretch:normal;font-family:sans-serif;-inkscape-font-specification:'sans-serif Bold';fill:#ffffff;stroke-width:0.0291618"
           id="path162" />
        <path
           d="m 6.970451,22.319798 q 0,0.64885 -0.3718129,1.031598 -0.3718129,0.380926 -1.0279533,0.380926 -0.6543178,0 -1.0261307,-0.380926 -0.3718129,-0.382748 -0.3718129,-1.031598 0,-0.654318 0.3718129,-1.033421 0.3718129,-0.380926 1.0261307,-0.380926 0.6524952,0 1.0261307,0.380926 0.3736355,0.379103 0.3736355,1.033421 z m -0.9277096,0.687125 q 0.1020663,-0.123938 0.1512768,-0.291618 0.049211,-0.169503 0.049211,-0.39733 0,-0.24423 -0.056501,-0.415555 -0.056501,-0.171326 -0.1476316,-0.277037 -0.092953,-0.109357 -0.2150683,-0.158568 -0.1202924,-0.04921 -0.2515205,-0.04921 -0.1330507,0 -0.2515204,0.04739 -0.1166472,0.04739 -0.2150683,0.156744 -0.091131,0.102067 -0.1494542,0.282505 -0.056501,0.178616 -0.056501,0.415556 0,0.242407 0.054678,0.413733 0.056501,0.169503 0.1476316,0.277037 0.091131,0.107534 0.2132456,0.158567 0.122115,0.05103 0.2569883,0.05103 0.1348733,0 0.2569884,-0.05103 0.122115,-0.05286 0.2132456,-0.162212 z"
           style="font-style:normal;font-variant:normal;font-weight:bold;font-stretch:normal;font-family:sans-serif;-inkscape-font-specification:'sans-serif Bold';fill:#ffffff;stroke-width:0.0291618"
           id="path164" />
        <path
           d="m 8.7310942,23.728677 q -0.3025536,0 -0.5595419,-0.08931 Q 7.9163866,23.550061 7.7323027,23.373268 7.5482189,23.196474 7.4461526,22.932196 7.3459089,22.667917 7.3459089,22.32162 q 0,-0.322602 0.096598,-0.585058 0.096598,-0.262456 0.2806823,-0.450185 0.1767934,-0.180439 0.4374269,-0.27886 0.2624562,-0.09842 0.5723003,-0.09842 0.1713255,0 0.3080214,0.02005 0.1385186,0.01823 0.2551657,0.04921 0.1221151,0.03463 0.2205361,0.07837 0.1002437,0.04192 0.1749708,0.07837 v 0.657963 H 9.611416 q -0.051033,-0.04374 -0.1294055,-0.103889 -0.07655,-0.06015 -0.1749708,-0.11847 -0.1002437,-0.05832 -0.2168908,-0.09842 -0.1166472,-0.0401 -0.2496979,-0.0401 -0.1476316,0 -0.2806823,0.04739 -0.1330507,0.04556 -0.2460527,0.153099 -0.1075341,0.103889 -0.1749707,0.275214 -0.065614,0.171326 -0.065614,0.415556 0,0.255166 0.071082,0.426491 0.072904,0.171326 0.1822612,0.269747 0.1111794,0.100244 0.2478753,0.143986 0.1366959,0.04192 0.2697466,0.04192 0.1275829,0 0.2515205,-0.03828 0.1257602,-0.03827 0.2314718,-0.103888 0.089308,-0.05286 0.1658577,-0.113002 0.07655,-0.06015 0.1257602,-0.103889 h 0.072904 v 0.64885 q -0.1020663,0.04556 -0.1950195,0.08566 -0.092953,0.0401 -0.1950195,0.06926 -0.1330507,0.03828 -0.2496979,0.05832 -0.1166472,0.02005 -0.3207798,0.02005 z"
           style="font-style:normal;font-variant:normal;font-weight:bold;font-stretch:normal;font-family:sans-serif;-inkscape-font-specification:'sans-serif Bold';fill:#ffffff;stroke-width:0.0291618"
           id="path166" />
        <path
           d="m 11.672791,23.675821 h -1.589318 v -0.481169 h 0.444717 v -1.751531 h -0.444717 v -0.481169 h 1.589318 v 0.481169 h -0.444718 v 1.751531 h 0.444718 z"
           style="font-style:normal;font-variant:normal;font-weight:bold;font-stretch:normal;font-family:sans-serif;-inkscape-font-specification:'sans-serif Bold';fill:#ffffff;stroke-width:0.0291618"
           id="path168" />
        <path
           d="m 14.751182,23.675821 h -0.723577 l -0.187729,-0.548606 h -1.006082 l -0.187729,0.548606 h -0.705351 l 1.002437,-2.713869 h 0.805594 z m -1.080809,-1.046179 -0.333538,-0.973275 -0.333538,0.973275 z"
           style="font-style:normal;font-variant:normal;font-weight:bold;font-stretch:normal;font-family:sans-serif;-inkscape-font-specification:'sans-serif Bold';fill:#ffffff;stroke-width:0.0291618"
           id="path170" />
        <path
           d="m 17.098707,23.675821 h -1.957485 v -2.713869 h 0.699883 v 2.188957 h 1.257602 z"
           style="font-style:normal;font-variant:normal;font-weight:bold;font-stretch:normal;font-family:sans-serif;-inkscape-font-specification:'sans-serif Bold';fill:#ffffff;stroke-width:0.0291618"
           id="path172" />
        <path
           d="m 18.986933,23.675821 h -1.589318 v -0.481169 h 0.444718 v -1.751531 h -0.444718 v -0.481169 h 1.589318 v 0.481169 h -0.444717 v 1.751531 h 0.444717 z"
           style="font-style:normal;font-variant:normal;font-weight:bold;font-stretch:normal;font-family:sans-serif;-inkscape-font-specification:'sans-serif Bold';fill:#ffffff;stroke-width:0.0291618"
           id="path174" />
        <path
           d="m 21.729966,22.822839 q 0,0.400974 -0.340829,0.652495 -0.339006,0.249698 -0.922242,0.249698 -0.337183,0 -0.588703,-0.05832 -0.249698,-0.06015 -0.468412,-0.151277 v -0.650672 h 0.07655 q 0.216891,0.173148 0.484815,0.266101 0.269746,0.09295 0.517622,0.09295 0.06379,0 0.16768,-0.01093 0.103889,-0.01094 0.169503,-0.03645 0.08019,-0.03281 0.131228,-0.08202 0.05286,-0.04921 0.05286,-0.145809 0,-0.08931 -0.07655,-0.153099 -0.07473,-0.06561 -0.220536,-0.100244 -0.153099,-0.03645 -0.324425,-0.06744 -0.169503,-0.03281 -0.318957,-0.08202 -0.342651,-0.11118 -0.493928,-0.300731 -0.149454,-0.191375 -0.149454,-0.473879 0,-0.379104 0.339006,-0.617866 0.340828,-0.240585 0.874853,-0.240585 0.267924,0 0.528558,0.05286 0.262456,0.05103 0.45383,0.129405 v 0.625156 h -0.07473 q -0.164035,-0.131228 -0.402797,-0.218713 -0.23694,-0.08931 -0.484815,-0.08931 -0.08748,0 -0.174971,0.01276 -0.08566,0.01094 -0.165857,0.04374 -0.07108,0.02734 -0.122115,0.08384 -0.05103,0.05468 -0.05103,0.12576 0,0.107534 0.08202,0.165858 0.08202,0.0565 0.309844,0.103889 0.149454,0.03098 0.28615,0.06015 0.138519,0.02916 0.297086,0.08019 0.311667,0.102066 0.459298,0.27886 0.149455,0.17497 0.149455,0.455653 z"
           style="font-style:normal;font-variant:normal;font-weight:bold;font-stretch:normal;font-family:sans-serif;-inkscape-font-specification:'sans-serif Bold';fill:#ffffff;stroke-width:0.0291618"
           id="path176" />
        <path
           d="m 25.054409,23.675821 h -0.696238 v -1.817144 l -0.503041,1.17923 h -0.482992 l -0.503041,-1.17923 v 1.817144 h -0.659786 v -2.713869 h 0.812885 l 0.610575,1.361491 0.608753,-1.361491 h 0.812885 z"
           style="font-style:normal;font-variant:normal;font-weight:bold;font-stretch:normal;font-family:sans-serif;-inkscape-font-specification:'sans-serif Bold';fill:#ffffff;stroke-width:0.0291618"
           id="path178" />
      </g>
    </g>
    <g
       style="fill:#ffd42a;fill-rule:evenodd"
       id="g319"
       transform="matrix(0.00115899,0,0,0.00115899,-25.448996,99.218942)">
      <g
         id="Default"
         visibility="visible"
         style="fill:#ffd42a">
        <desc
           id="desc3699">Master slide</desc>
      </g>
      <g
         id="g3982"
         style="visibility:visible;fill:#ffd42a;fill-opacity:1;stroke:none;stroke-opacity:1">
        <desc
           id="desc3704">Group</desc>
        <g
           id="g3734"
           style="fill:#ffd42a;fill-opacity:1;stroke:none;stroke-opacity:1">
          <desc
             id="desc3706">Drawing</desc>
          <g
             id="g3732"
             style="fill:#ffd42a;fill-opacity:1;stroke:none;stroke-opacity:1">
            <g
               style="fill:#ffd42a;fill-opacity:1;stroke:none;stroke-opacity:1"
               id="g3710">
              <path
                 d="M 8639,426 6546,3840 9419,5161 11318,2109 Z"
                 id="path3708"
                 style="fill:#ffd42a;fill-opacity:1;stroke:none;stroke-opacity:1" />
            </g>
            <g
               style="fill:#ffd42a;fill-opacity:1;stroke:none;stroke-opacity:1"
               id="g3728">
              <path
                 d="m 8682,453 -2093,3414 -43,-27 -43,-27 2093,-3414 43,27 z"
                 id="path3712"
                 style="fill:#ffd42a;fill-opacity:1;stroke:none;stroke-opacity:1" />
              <path
                 d="m 6546,3840 -21,46 -8,-4 -7,-6 -6,-7 -4,-7 -3,-9 -2,-8 v -9 l 2,-9 3,-8 3,-6 z"
                 id="path3714"
                 style="fill:#ffd42a;fill-opacity:1;stroke:none;stroke-opacity:1" />
              <path
                 d="m 6567,3794 2873,1321 -21,46 -21,46 -2873,-1321 21,-46 z"
                 id="path3716"
                 style="fill:#ffd42a;fill-opacity:1;stroke:none;stroke-opacity:1" />
              <path
                 d="m 9419,5161 43,27 -5,7 -7,6 -7,5 -8,3 -9,2 -9,1 -9,-1 -8,-3 -2,-1 z"
                 id="path3718"
                 style="fill:#ffd42a;fill-opacity:1;stroke:none;stroke-opacity:1" />
              <path
                 d="m 9376,5134 1899,-3052 43,27 43,27 -1899,3052 -43,-27 z"
                 id="path3720"
                 style="fill:#ffd42a;fill-opacity:1;stroke:none;stroke-opacity:1" />
              <path
                 d="m 11318,2109 27,-43 7,5 6,7 5,7 4,8 2,9 v 9 l -1,9 -3,8 -4,8 z"
                 id="path3722"
                 style="fill:#ffd42a;fill-opacity:1;stroke:none;stroke-opacity:1" />
              <path
                 d="M 11291,2152 8612,469 l 27,-43 27,-43 2679,1683 -27,43 z"
                 id="path3724"
                 style="fill:#ffd42a;fill-opacity:1;stroke:none;stroke-opacity:1" />
              <path
                 d="m 8639,426 -43,-27 5,-7 6,-6 8,-5 8,-3 8,-2 9,-1 9,1 9,3 8,4 v 0 z"
                 id="path3726"
                 style="fill:#ffd42a;fill-opacity:1;stroke:none;stroke-opacity:1" />
            </g>
            <g
               id="g3730"
               style="fill:#ffd42a;fill-opacity:1;stroke:none;stroke-opacity:1" />
          </g>
        </g>
        <g
           id="g3768"
           style="fill:#ffd42a;fill-opacity:1;stroke:none;stroke-opacity:1">
          <desc
             id="desc3736">Drawing</desc>
          <g
             id="g3766"
             style="fill:#ffd42a;fill-opacity:1;stroke:none;stroke-opacity:1">
            <g
               style="fill:#ffd42a;fill-opacity:1;stroke:none;stroke-opacity:1"
               id="g3740">
              <path
                 d="m 12291,2748 -1800,2958 2191,1093 -148,1184 2484,-3779 z"
                 id="path3738"
                 style="fill:#ffd42a;fill-opacity:1;stroke:none;stroke-opacity:1" />
            </g>
            <g
               style="fill:#ffd42a;fill-opacity:1;stroke:none;stroke-opacity:1"
               id="g3762">
              <path
                 d="m 12335,2775 -1800,2958 -44,-27 -44,-27 1800,-2958 44,27 z"
                 id="path3742"
                 style="fill:#ffd42a;fill-opacity:1;stroke:none;stroke-opacity:1" />
              <path
                 d="m 10491,5706 -23,46 -7,-5 -7,-6 -6,-7 -4,-8 -3,-8 -1,-9 v -9 l 2,-8 3,-9 2,-4 z"
                 id="path3744"
                 style="fill:#ffd42a;fill-opacity:1;stroke:none;stroke-opacity:1" />
              <path
                 d="m 10514,5660 2191,1093 -23,46 -23,46 -2191,-1093 23,-46 z"
                 id="path3746"
                 style="fill:#ffd42a;fill-opacity:1;stroke:none;stroke-opacity:1" />
              <path
                 d="m 12682,6799 23,-46 7,5 7,6 6,7 4,8 3,8 1,9 v 9 0 z"
                 id="path3748"
                 style="fill:#ffd42a;fill-opacity:1;stroke:none;stroke-opacity:1" />
              <path
                 d="m 12733,6805 -148,1184 -51,-6 -51,-6 148,-1184 51,6 z"
                 id="path3750"
                 style="fill:#ffd42a;fill-opacity:1;stroke:none;stroke-opacity:1" />
              <path
                 d="m 12534,7983 43,28 -6,7 -7,6 -7,5 -8,3 -9,2 h -9 l -9,-1 -8,-3 -8,-4 -7,-6 -6,-7 -5,-7 -3,-8 -2,-9 v -9 -3 z"
                 id="path3752"
                 style="fill:#ffd42a;fill-opacity:1;stroke:none;stroke-opacity:1" />
              <path
                 d="m 12491,7955 2484,-3779 43,28 43,28 -2484,3779 -43,-28 z"
                 id="path3754"
                 style="fill:#ffd42a;fill-opacity:1;stroke:none;stroke-opacity:1" />
              <path
                 d="m 15018,4204 24,-45 7,5 7,6 5,7 4,8 3,8 1,9 -1,9 -2,9 -3,8 -2,4 z"
                 id="path3756"
                 style="fill:#ffd42a;fill-opacity:1;stroke:none;stroke-opacity:1" />
              <path
                 d="m 14994,4249 -2727,-1456 24,-45 24,-45 2727,1456 -24,45 z"
                 id="path3758"
                 style="fill:#ffd42a;fill-opacity:1;stroke:none;stroke-opacity:1" />
              <path
                 d="m 12291,2748 -44,-27 6,-7 6,-6 8,-5 8,-3 8,-2 9,-1 9,1 9,2 5,3 z"
                 id="path3760"
                 style="fill:#ffd42a;fill-opacity:1;stroke:none;stroke-opacity:1" />
            </g>
            <g
               id="g3764"
               style="fill:#ffd42a;fill-opacity:1;stroke:none;stroke-opacity:1" />
          </g>
        </g>
        <g
           id="g3802"
           style="fill:#ffd42a;fill-opacity:1;stroke:none;stroke-opacity:1">
          <desc
             id="desc3770">Drawing</desc>
          <g
             id="g3800"
             style="fill:#ffd42a;fill-opacity:1;stroke:none;stroke-opacity:1">
            <g
               style="fill:#ffd42a;fill-opacity:1;stroke:none;stroke-opacity:1"
               id="g3774">
              <path
                 d="m 15701,5479 -3896,5462 2337,864 3847,-4552 h -49 z"
                 id="path3772"
                 style="fill:#ffd42a;fill-opacity:1;stroke:none;stroke-opacity:1" />
            </g>
            <g
               style="fill:#ffd42a;fill-opacity:1;stroke:none;stroke-opacity:1"
               id="g3796">
              <path
                 d="m 15743,5509 -3896,5462 -42,-30 -42,-30 3896,-5462 42,30 z"
                 id="path3776"
                 style="fill:#ffd42a;fill-opacity:1;stroke:none;stroke-opacity:1" />
              <path
                 d="m 11805,10941 -18,48 -8,-4 -7,-5 -6,-6 -5,-8 -4,-8 -2,-8 -1,-9 1,-9 2,-9 4,-8 2,-4 z"
                 id="path3778"
                 style="fill:#ffd42a;fill-opacity:1;stroke:none;stroke-opacity:1" />
              <path
                 d="m 11823,10893 2337,864 -18,48 -18,48 -2337,-864 18,-48 z"
                 id="path3780"
                 style="fill:#ffd42a;fill-opacity:1;stroke:none;stroke-opacity:1" />
              <path
                 d="m 14142,11805 39,33 -6,6 -8,5 -8,4 -8,2 -9,1 -9,-1 -9,-2 v 0 z"
                 id="path3782"
                 style="fill:#ffd42a;fill-opacity:1;stroke:none;stroke-opacity:1" />
              <path
                 d="m 14103,11772 3847,-4552 39,33 39,33 -3847,4552 -39,-33 z"
                 id="path3784"
                 style="fill:#ffd42a;fill-opacity:1;stroke:none;stroke-opacity:1" />
              <path
                 d="m 17989,7253 v -51 l 9,1 8,2 8,4 8,5 6,6 5,7 4,9 2,8 1,9 -1,9 -2,8 -4,8 -5,8 v 0 z"
                 id="path3786"
                 style="fill:#ffd42a;fill-opacity:1;stroke:none;stroke-opacity:1" />
              <path
                 d="m 17989,7304 h -49 v -51 -51 h 49 v 51 z"
                 id="path3788"
                 style="fill:#ffd42a;fill-opacity:1;stroke:none;stroke-opacity:1" />
              <path
                 d="m 17940,7253 v 51 l -9,-1 -8,-2 -8,-4 -7,-4 z"
                 id="path3790"
                 style="fill:#ffd42a;fill-opacity:1;stroke:none;stroke-opacity:1" />
              <path
                 d="m 17908,7293 -2239,-1774 32,-40 32,-40 2239,1774 -32,40 z"
                 id="path3792"
                 style="fill:#ffd42a;fill-opacity:1;stroke:none;stroke-opacity:1" />
              <path
                 d="m 15701,5479 -42,-30 6,-6 7,-6 8,-4 8,-3 9,-2 h 9 l 9,2 8,3 8,4 2,2 z"
                 id="path3794"
                 style="fill:#ffd42a;fill-opacity:1;stroke:none;stroke-opacity:1" />
            </g>
            <g
               id="g3798"
               style="fill:#ffd42a;fill-opacity:1;stroke:none;stroke-opacity:1" />
          </g>
        </g>
        <g
           id="g3832"
           style="fill:#ffd42a;fill-opacity:1;stroke:none;stroke-opacity:1">
          <desc
             id="desc3804">Drawing</desc>
          <g
             id="g3830"
             style="fill:#ffd42a;fill-opacity:1;stroke:none;stroke-opacity:1">
            <g
               style="fill:#ffd42a;fill-opacity:1;stroke:none;stroke-opacity:1"
               id="g3808">
              <path
                 d="m 18573,8255 -3603,4189 1119,1138 4139,-3689 z"
                 id="path3806"
                 style="fill:#ffd42a;fill-opacity:1;stroke:none;stroke-opacity:1" />
            </g>
            <g
               style="fill:#ffd42a;fill-opacity:1;stroke:none;stroke-opacity:1"
               id="g3826">
              <path
                 d="m 18612,8288 -3603,4189 -39,-33 -39,-33 3603,-4189 39,33 z"
                 id="path3810"
                 style="fill:#ffd42a;fill-opacity:1;stroke:none;stroke-opacity:1" />
              <path
                 d="m 14970,12444 -36,36 -6,-7 -4,-8 -3,-8 -2,-9 v -9 l 2,-9 3,-8 4,-8 3,-3 z"
                 id="path3812"
                 style="fill:#ffd42a;fill-opacity:1;stroke:none;stroke-opacity:1" />
              <path
                 d="m 15006,12408 1119,1138 -36,36 -36,36 -1119,-1138 36,-36 z"
                 id="path3814"
                 style="fill:#ffd42a;fill-opacity:1;stroke:none;stroke-opacity:1" />
              <path
                 d="m 16089,13582 34,38 -7,5 -8,4 -9,3 -8,1 -9,-1 -9,-2 -8,-3 -8,-5 -4,-4 z"
                 id="path3816"
                 style="fill:#ffd42a;fill-opacity:1;stroke:none;stroke-opacity:1" />
              <path
                 d="m 16055,13544 4139,-3689 34,38 34,38 -4139,3689 -34,-38 z"
                 id="path3818"
                 style="fill:#ffd42a;fill-opacity:1;stroke:none;stroke-opacity:1" />
              <path
                 d="m 20228,9893 36,-36 6,7 4,7 3,9 2,8 v 9 l -2,9 -3,8 -4,8 -6,7 -2,2 z"
                 id="path3820"
                 style="fill:#ffd42a;fill-opacity:1;stroke:none;stroke-opacity:1" />
              <path
                 d="m 20192,9929 -1655,-1638 36,-36 36,-36 1655,1638 -36,36 z"
                 id="path3822"
                 style="fill:#ffd42a;fill-opacity:1;stroke:none;stroke-opacity:1" />
              <path
                 d="m 18573,8255 -39,-33 7,-6 7,-5 8,-4 9,-2 9,-1 8,1 9,2 8,4 7,5 3,3 z"
                 id="path3824"
                 style="fill:#ffd42a;fill-opacity:1;stroke:none;stroke-opacity:1" />
            </g>
            <g
               id="g3828"
               style="fill:#ffd42a;fill-opacity:1;stroke:none;stroke-opacity:1" />
          </g>
        </g>
        <g
           id="g3954"
           style="fill:#ffd42a;fill-opacity:1;stroke:none;stroke-opacity:1">
          <desc
             id="desc3834">Drawing</desc>
          <g
             id="g3952"
             style="fill:#ffd42a;fill-opacity:1;stroke:none;stroke-opacity:1">
            <g
               style="fill:#ffd42a;fill-opacity:1;stroke:none;stroke-opacity:1"
               id="g3838">
              <path
                 d="m 5377,4568 -4382,6509 6720,7693 -1267,7375 9884,-91 -438,-6692 2290,-2913 584,-3916 -2629,2186 -2192,-1957 -3992,-957 3896,6101 876,637 -1412,45 -438,1594 -586,-1594 -1460,229 1606,-1411 L 8639,11533 5669,10532 6741,9575 6448,7983 h 633 l 974,1365 2191,-91 1169,-637 146,-1458 z"
                 id="path3836"
                 style="fill:#ffd42a;fill-opacity:1;stroke:none;stroke-opacity:1" />
            </g>
            <g
               style="fill:#ffd42a;fill-opacity:1;stroke:none;stroke-opacity:1"
               id="g3948">
              <path
                 d="m 5419,4596 -4382,6509 -42,-28 -42,-28 4382,-6509 42,28 z"
                 id="path3840"
                 style="fill:#ffd42a;fill-opacity:1;stroke:none;stroke-opacity:1" />
              <path
                 d="m 995,11077 -38,34 -6,-8 -4,-8 -2,-8 -1,-9 1,-9 2,-8 3,-9 3,-3 z"
                 id="path3842"
                 style="fill:#ffd42a;fill-opacity:1;stroke:none;stroke-opacity:1" />
              <path
                 d="m 1033,11043 6720,7693 -38,34 -38,34 -6720,-7693 38,-34 z"
                 id="path3844"
                 style="fill:#ffd42a;fill-opacity:1;stroke:none;stroke-opacity:1" />
              <path
                 d="m 7715,18770 38,-34 6,8 4,8 2,8 1,9 -1,9 v 1 z"
                 id="path3846"
                 style="fill:#ffd42a;fill-opacity:1;stroke:none;stroke-opacity:1" />
              <path
                 d="m 7765,18779 -1267,7375 -50,-9 -50,-9 1267,-7375 50,9 z"
                 id="path3848"
                 style="fill:#ffd42a;fill-opacity:1;stroke:none;stroke-opacity:1" />
              <path
                 d="m 6448,26145 v 51 l -8,-1 -9,-2 -8,-4 -7,-5 -7,-6 -5,-7 -4,-8 -2,-9 -1,-9 1,-8 v -1 z"
                 id="path3850"
                 style="fill:#ffd42a;fill-opacity:1;stroke:none;stroke-opacity:1" />
              <path
                 d="m 6448,26094 9884,-91 v 51 51 l -9884,91 v -51 z"
                 id="path3852"
                 style="fill:#ffd42a;fill-opacity:1;stroke:none;stroke-opacity:1" />
              <path
                 d="m 16332,26054 51,-3 v 9 l -2,8 -3,9 -5,7 -6,7 -7,5 -7,5 -9,3 -9,1 h -3 z"
                 id="path3854"
                 style="fill:#ffd42a;fill-opacity:1;stroke:none;stroke-opacity:1" />
              <path
                 d="m 16281,26057 -438,-6692 51,-3 51,-3 438,6692 -51,3 z"
                 id="path3856"
                 style="fill:#ffd42a;fill-opacity:1;stroke:none;stroke-opacity:1" />
              <path
                 d="m 15894,19362 -51,3 v -9 l 2,-8 3,-9 5,-7 1,-2 z"
                 id="path3858"
                 style="fill:#ffd42a;fill-opacity:1;stroke:none;stroke-opacity:1" />
              <path
                 d="m 15854,19330 2290,-2913 40,32 40,32 -2290,2913 -40,-32 z"
                 id="path3860"
                 style="fill:#ffd42a;fill-opacity:1;stroke:none;stroke-opacity:1" />
              <path
                 d="m 18184,16449 50,8 -2,8 -3,8 -5,8 z"
                 id="path3862"
                 style="fill:#ffd42a;fill-opacity:1;stroke:none;stroke-opacity:1" />
              <path
                 d="m 18134,16441 584,-3916 50,8 50,8 -584,3916 -50,-8 z"
                 id="path3864"
                 style="fill:#ffd42a;fill-opacity:1;stroke:none;stroke-opacity:1" />
              <path
                 d="m 18768,12533 -33,-39 8,-5 8,-4 8,-2 9,-1 9,1 9,2 8,4 7,5 6,6 5,8 4,8 2,8 1,9 -1,8 z"
                 id="path3866"
                 style="fill:#ffd42a;fill-opacity:1;stroke:none;stroke-opacity:1" />
              <path
                 d="m 18801,12572 -2629,2186 -33,-39 -33,-39 2629,-2186 33,39 z"
                 id="path3868"
                 style="fill:#ffd42a;fill-opacity:1;stroke:none;stroke-opacity:1" />
              <path
                 d="m 16139,14719 33,39 -8,5 -8,4 -8,2 -9,1 -9,-1 -9,-2 -8,-4 -7,-5 -1,-1 z"
                 id="path3870"
                 style="fill:#ffd42a;fill-opacity:1;stroke:none;stroke-opacity:1" />
              <path
                 d="m 16105,14757 -2192,-1957 34,-38 34,-38 2192,1957 -34,38 z"
                 id="path3872"
                 style="fill:#ffd42a;fill-opacity:1;stroke:none;stroke-opacity:1" />
              <path
                 d="m 13947,12762 12,-50 8,3 8,4 6,5 z"
                 id="path3874"
                 style="fill:#ffd42a;fill-opacity:1;stroke:none;stroke-opacity:1" />
              <path
                 d="m 13935,12812 -3992,-957 12,-50 12,-50 3992,957 -12,50 z"
                 id="path3876"
                 style="fill:#ffd42a;fill-opacity:1;stroke:none;stroke-opacity:1" />
              <path
                 d="m 9955,11805 -43,27 -4,-7 -3,-9 -1,-9 v -9 l 2,-8 4,-9 5,-7 6,-7 7,-5 7,-4 9,-3 9,-1 h 9 l 5,1 z"
                 id="path3878"
                 style="fill:#ffd42a;fill-opacity:1;stroke:none;stroke-opacity:1" />
              <path
                 d="m 9998,11778 3896,6101 -43,27 -43,27 -3896,-6101 43,-27 z"
                 id="path3880"
                 style="fill:#ffd42a;fill-opacity:1;stroke:none;stroke-opacity:1" />
              <path
                 d="m 13851,17906 -30,41 -7,-6 -5,-6 -1,-2 z"
                 id="path3882"
                 style="fill:#ffd42a;fill-opacity:1;stroke:none;stroke-opacity:1" />
              <path
                 d="m 13881,17865 876,637 -30,41 -30,41 -876,-637 30,-41 z"
                 id="path3884"
                 style="fill:#ffd42a;fill-opacity:1;stroke:none;stroke-opacity:1" />
              <path
                 d="m 14727,18543 30,-41 7,6 5,6 5,8 2,9 2,8 v 9 l -2,9 -3,8 -5,8 -6,7 -6,5 -8,5 -9,2 -8,2 h -2 z"
                 id="path3886"
                 style="fill:#ffd42a;fill-opacity:1;stroke:none;stroke-opacity:1" />
              <path
                 d="m 14729,18594 -1412,45 -2,-51 -2,-51 1412,-45 2,51 z"
                 id="path3888"
                 style="fill:#ffd42a;fill-opacity:1;stroke:none;stroke-opacity:1" />
              <path
                 d="m 13315,18588 -49,-14 3,-8 4,-8 6,-6 7,-6 8,-4 8,-3 9,-2 h 2 z"
                 id="path3890"
                 style="fill:#ffd42a;fill-opacity:1;stroke:none;stroke-opacity:1" />
              <path
                 d="m 13364,18602 -438,1594 -49,-14 -49,-14 438,-1594 49,14 z"
                 id="path3892"
                 style="fill:#ffd42a;fill-opacity:1;stroke:none;stroke-opacity:1" />
              <path
                 d="m 12877,20182 49,14 -3,8 -4,8 -6,6 -7,6 -8,4 -8,3 -9,2 h -9 l -9,-2 -8,-3 -8,-4 -6,-6 -6,-7 -4,-8 -2,-3 z"
                 id="path3894"
                 style="fill:#ffd42a;fill-opacity:1;stroke:none;stroke-opacity:1" />
              <path
                 d="m 12829,20200 -586,-1594 48,-18 48,-18 586,1594 -48,18 z"
                 id="path3896"
                 style="fill:#ffd42a;fill-opacity:1;stroke:none;stroke-opacity:1" />
              <path
                 d="m 12291,18588 -8,-50 9,-1 9,1 8,2 8,4 8,6 6,6 5,7 3,7 z"
                 id="path3898"
                 style="fill:#ffd42a;fill-opacity:1;stroke:none;stroke-opacity:1" />
              <path
                 d="m 12299,18638 -1460,229 -8,-50 -8,-50 1460,-229 8,50 z"
                 id="path3900"
                 style="fill:#ffd42a;fill-opacity:1;stroke:none;stroke-opacity:1" />
              <path
                 d="m 10831,18817 8,50 -9,1 -9,-1 -8,-2 -8,-4 -8,-6 -6,-6 -5,-7 -3,-8 -2,-9 -1,-9 1,-9 2,-8 4,-8 6,-8 4,-4 z"
                 id="path3902"
                 style="fill:#ffd42a;fill-opacity:1;stroke:none;stroke-opacity:1" />
              <path
                 d="m 10797,18779 1606,-1411 34,38 34,38 -1606,1411 -34,-38 z"
                 id="path3904"
                 style="fill:#ffd42a;fill-opacity:1;stroke:none;stroke-opacity:1" />
              <path
                 d="m 12437,17406 43,-28 4,8 3,9 1,8 v 9 l -2,9 -4,8 -4,8 -6,6 -1,1 z"
                 id="path3906"
                 style="fill:#ffd42a;fill-opacity:1;stroke:none;stroke-opacity:1" />
              <path
                 d="m 12394,17434 -3798,-5873 43,-28 43,-28 3798,5873 -43,28 z"
                 id="path3908"
                 style="fill:#ffd42a;fill-opacity:1;stroke:none;stroke-opacity:1" />
              <path
                 d="m 8639,11533 16,-48 8,3 8,5 6,6 5,6 z"
                 id="path3910"
                 style="fill:#ffd42a;fill-opacity:1;stroke:none;stroke-opacity:1" />
              <path
                 d="m 8623,11581 -2970,-1001 16,-48 16,-48 2970,1001 -16,48 z"
                 id="path3912"
                 style="fill:#ffd42a;fill-opacity:1;stroke:none;stroke-opacity:1" />
              <path
                 d="m 5669,10532 -16,48 -8,-3 -8,-5 -6,-6 -6,-7 -3,-8 -3,-9 -1,-9 1,-9 2,-8 3,-8 5,-8 6,-6 z"
                 id="path3914"
                 style="fill:#ffd42a;fill-opacity:1;stroke:none;stroke-opacity:1" />
              <path
                 d="m 5635,10494 1072,-957 34,38 34,38 -1072,957 -34,-38 z"
                 id="path3916"
                 style="fill:#ffd42a;fill-opacity:1;stroke:none;stroke-opacity:1" />
              <path
                 d="m 6741,9575 50,-9 1,9 -1,8 -2,9 -4,8 -5,7 -5,6 z"
                 id="path3918"
                 style="fill:#ffd42a;fill-opacity:1;stroke:none;stroke-opacity:1" />
              <path
                 d="m 6691,9584 -293,-1592 50,-9 50,-9 293,1592 -50,9 z"
                 id="path3920"
                 style="fill:#ffd42a;fill-opacity:1;stroke:none;stroke-opacity:1" />
              <path
                 d="m 6448,7983 -50,9 -1,-9 1,-8 2,-9 4,-8 5,-7 6,-7 7,-5 8,-4 9,-2 9,-1 v 0 z"
                 id="path3922"
                 style="fill:#ffd42a;fill-opacity:1;stroke:none;stroke-opacity:1" />
              <path
                 d="m 6448,7932 h 633 v 51 51 h -633 v -51 z"
                 id="path3924"
                 style="fill:#ffd42a;fill-opacity:1;stroke:none;stroke-opacity:1" />
              <path
                 d="m 7081,7983 v -51 l 9,1 8,2 8,4 8,5 6,6 3,3 z"
                 id="path3926"
                 style="fill:#ffd42a;fill-opacity:1;stroke:none;stroke-opacity:1" />
              <path
                 d="m 7123,7953 974,1365 -42,30 -42,30 -974,-1365 42,-30 z"
                 id="path3928"
                 style="fill:#ffd42a;fill-opacity:1;stroke:none;stroke-opacity:1" />
              <path
                 d="m 8055,9348 2,51 h -9 l -8,-2 -9,-4 -7,-5 -7,-6 -4,-4 z"
                 id="path3930"
                 style="fill:#ffd42a;fill-opacity:1;stroke:none;stroke-opacity:1" />
              <path
                 d="m 8053,9297 2191,-91 2,51 2,51 -2191,91 -2,-51 z"
                 id="path3932"
                 style="fill:#ffd42a;fill-opacity:1;stroke:none;stroke-opacity:1" />
              <path
                 d="m 10246,9257 24,45 -8,3 -8,2 -6,1 z"
                 id="path3934"
                 style="fill:#ffd42a;fill-opacity:1;stroke:none;stroke-opacity:1" />
              <path
                 d="m 10222,9212 1169,-637 24,45 24,45 -1169,637 -24,-45 z"
                 id="path3936"
                 style="fill:#ffd42a;fill-opacity:1;stroke:none;stroke-opacity:1" />
              <path
                 d="m 11415,8620 51,5 -2,9 -3,8 -5,8 -5,7 -7,5 -5,3 z"
                 id="path3938"
                 style="fill:#ffd42a;fill-opacity:1;stroke:none;stroke-opacity:1" />
              <path
                 d="m 11364,8615 146,-1458 51,5 51,5 -146,1458 -51,-5 z"
                 id="path3940"
                 style="fill:#ffd42a;fill-opacity:1;stroke:none;stroke-opacity:1" />
              <path
                 d="m 11561,7162 20,-47 8,4 7,6 6,6 4,8 4,8 2,9 v 8 3 z"
                 id="path3942"
                 style="fill:#ffd42a;fill-opacity:1;stroke:none;stroke-opacity:1" />
              <path
                 d="m 11541,7209 -6184,-2594 20,-47 20,-47 6184,2594 -20,47 z"
                 id="path3944"
                 style="fill:#ffd42a;fill-opacity:1;stroke:none;stroke-opacity:1" />
              <path
                 d="m 5377,4568 -42,-28 5,-7 7,-6 8,-5 8,-3 9,-2 h 9 l 8,2 8,2 z"
                 id="path3946"
                 style="fill:#ffd42a;fill-opacity:1;stroke:none;stroke-opacity:1" />
            </g>
            <g
               id="g3950"
               style="fill:#ffd42a;fill-opacity:1;stroke:none;stroke-opacity:1" />
          </g>
        </g>
        <g
           id="g3980"
           style="fill:#ffd42a;fill-opacity:1;stroke:none;stroke-opacity:1">
          <desc
             id="desc3956">Drawing</desc>
          <g
             id="g3978"
             style="fill:#ffd42a;fill-opacity:1;stroke:none;stroke-opacity:1">
            <g
               style="fill:#ffd42a;fill-opacity:1;stroke:none;stroke-opacity:1"
               id="g3960">
              <path
                 d="m 11513,9849 -1120,1184 -1218,-501 z"
                 id="path3958"
                 style="fill:#ffd42a;fill-opacity:1;stroke:none;stroke-opacity:1" />
            </g>
            <g
               style="fill:#ffd42a;fill-opacity:1;stroke:none;stroke-opacity:1"
               id="g3974">
              <path
                 d="m 11550,9884 -1120,1184 -37,-35 -37,-35 1120,-1184 37,35 z"
                 id="path3962"
                 style="fill:#ffd42a;fill-opacity:1;stroke:none;stroke-opacity:1" />
              <path
                 d="m 10393,11033 37,35 -7,6 -7,5 -8,3 -9,2 h -9 l -9,-1 -7,-3 z"
                 id="path3964"
                 style="fill:#ffd42a;fill-opacity:1;stroke:none;stroke-opacity:1" />
              <path
                 d="m 10374,11080 -1218,-501 19,-47 19,-47 1218,501 -19,47 z"
                 id="path3966"
                 style="fill:#ffd42a;fill-opacity:1;stroke:none;stroke-opacity:1" />
              <path
                 d="m 9175,10532 -19,47 -8,-4 -7,-5 -6,-7 -5,-7 -4,-9 -2,-8 v -9 l 1,-9 3,-8 4,-8 5,-7 7,-6 7,-5 9,-4 h 1 z"
                 id="path3968"
                 style="fill:#ffd42a;fill-opacity:1;stroke:none;stroke-opacity:1" />
              <path
                 d="m 9161,10483 2338,-683 14,49 14,49 -2338,683 -14,-49 z"
                 id="path3970"
                 style="fill:#ffd42a;fill-opacity:1;stroke:none;stroke-opacity:1" />
              <path
                 d="m 11513,9849 -14,-49 8,-2 h 9 l 9,1 9,3 7,5 7,5 6,7 5,7 3,9 2,8 v 9 l -1,9 -3,9 -5,7 -5,7 z"
                 id="path3972"
                 style="fill:#ffd42a;fill-opacity:1;stroke:none;stroke-opacity:1" />
            </g>
            <g
               id="g3976"
               style="fill:#ffd42a;fill-opacity:1;stroke:none;stroke-opacity:1" />
          </g>
        </g>
      </g>
    </g>
    <text
       xml:space="preserve"
       style="font-style:normal;font-variant:normal;font-weight:500;font-stretch:normal;font-size:8.46667px;line-height:4.23333px;font-family:Montserrat;-inkscape-font-specification:'Montserrat Medium';text-align:center;text-anchor:middle;opacity:1;fill:#eeeeee;fill-opacity:1;fill-rule:nonzero;stroke:none;stroke-width:4.23333;stroke-linecap:butt;stroke-linejoin:round;stroke-miterlimit:4;stroke-dasharray:none;stroke-dashoffset:0;stroke-opacity:1;paint-order:stroke fill markers"
       x="-355.53735"
       y="24.113144"
       id="text4627-36-3"><tspan
         sodipodi:role="line"
         id="tspan4625-0-6"
         x="-355.53735"
         y="24.113144"
         style="font-style:normal;font-variant:normal;font-weight:500;font-stretch:normal;font-size:8.46667px;font-family:Montserrat;-inkscape-font-specification:'Montserrat Medium';text-align:center;text-anchor:middle;fill:#eeeeee;fill-opacity:1;stroke-width:4.23333">ORD</tspan></text>
  </g>
</svg>
