<?xml version="1.0" encoding="UTF-8" standalone="no"?>
<svg
   xmlns:dc="http://purl.org/dc/elements/1.1/"
   xmlns:cc="http://creativecommons.org/ns#"
   xmlns:rdf="http://www.w3.org/1999/02/22-rdf-syntax-ns#"
   xmlns:svg="http://www.w3.org/2000/svg"
   xmlns="http://www.w3.org/2000/svg"
   xmlns:sodipodi="http://sodipodi.sourceforge.net/DTD/sodipodi-0.dtd"
   xmlns:inkscape="http://www.inkscape.org/namespaces/inkscape"
   width="200"
   height="200"
   viewBox="0 0 52.916668 52.916666"
   version="1.1"
   id="svg8"
   inkscape:version="1.0.2-2 (e86c870879, 2021-01-15)"
   sodipodi:docname="liberty.svg">
  <defs
     id="defs2">
    <inkscape:path-effect
       effect="envelope"
       id="path-effect4658"
       is_visible="true"
       yy="true"
       xx="true"
       bendpath1="m -199.08406,108.42369 h 7.0057"
       bendpath2="m -192.07836,108.42369 v 6.75242"
       bendpath3="m -199.08406,115.17611 h 7.0057"
       bendpath4="m -199.08406,108.42369 v 6.75242" />
    <inkscape:path-effect
       effect="bend_path"
       id="path-effect4656"
       is_visible="true"
       bendpath="m -192.00142,114.60623 c 2.12577,-0.53066 4.48261,0.85111 7.0057,0"
       prop_scale="1"
       scale_y_rel="false"
       vertical="false"
       bendpath-nodetypes="cc" />
    <inkscape:path-effect
       effect="bounding_box"
       id="path-effect4654"
       is_visible="true"
       linkedpath=""
       visualbounds="false" />
  </defs>
  <sodipodi:namedview
     id="base"
     pagecolor="#ffffff"
     bordercolor="#666666"
     borderopacity="1.0"
     inkscape:pageopacity="0.0"
     inkscape:pageshadow="2"
     inkscape:zoom="1.4142136"
     inkscape:cx="-107.50525"
     inkscape:cy="127.14408"
     inkscape:document-units="px"
     inkscape:current-layer="layer1"
     showgrid="false"
     fit-margin-top="0"
     fit-margin-left="0"
     fit-margin-right="0"
     fit-margin-bottom="0"
     inkscape:window-width="1920"
     inkscape:window-height="1017"
     inkscape:window-x="1912"
     inkscape:window-y="-8"
     inkscape:window-maximized="1"
     showguides="false"
     inkscape:object-nodes="true"
     units="px"
     inkscape:snap-page="true"
     inkscape:document-rotation="0" />
  <metadata
     id="metadata5">
    <rdf:RDF>
      <cc:Work
         rdf:about="">
        <dc:format>image/svg+xml</dc:format>
        <dc:type
           rdf:resource="http://purl.org/dc/dcmitype/StillImage" />
        <dc:title />
      </cc:Work>
    </rdf:RDF>
  </metadata>
  <g
     inkscape:label="Layer 1"
     inkscape:groupmode="layer"
     id="layer1"
     transform="translate(98.048812,-95.14345)">
    <rect
       ry="3.96875"
       rx="3.96875"
       style="fill:#222222;fill-opacity:1;fill-rule:nonzero;stroke:none;stroke-width:0.5;stroke-linecap:butt;stroke-linejoin:round;stroke-miterlimit:4;stroke-dasharray:none;stroke-dashoffset:0;stroke-opacity:0.909449;paint-order:normal"
       id="rect5134"
       width="52.916668"
       height="52.916668"
       x="-98.048813"
       y="95.143448" />
    <rect
       ry="2.6458333"
       rx="2.6458333"
       y="97.789284"
       x="-95.402977"
       height="47.625"
       width="47.625"
       id="rect5136"
       style="fill:#ffcc00;fill-opacity:1;fill-rule:nonzero;stroke:none;stroke-width:0.5;stroke-linecap:butt;stroke-linejoin:round;stroke-miterlimit:4;stroke-dasharray:none;stroke-dashoffset:0;stroke-opacity:0.909449;paint-order:normal" />
    <path
       style="fill:#222222;fill-opacity:1;stroke-width:1"
       d="m -147.28974,133.81463 c -0.41551,-0.0879 -1.3173,-0.37819 -1.55247,-0.49979 -0.10754,-0.0556 -0.37665,-0.16057 -0.59804,-0.23325 -0.99888,-0.32792 -1.8244,-0.89566 -2.32754,-1.60075 -0.70012,-0.98114 -2.96114,-5.08349 -2.96405,-5.37793 -5e-4,-0.0624 0.0827,-0.25674 0.18516,-0.43197 0.45464,-0.77761 0.66633,-1.60827 0.54912,-2.1548 -0.0389,-0.1816 -0.0708,-0.41525 -0.0708,-0.51919 0,-0.22819 -0.0374,-0.24438 -0.77932,-0.33742 -0.32068,-0.0402 -0.6653,-0.10484 -0.76581,-0.14366 -0.16434,-0.0634 -0.18276,-0.10284 -0.18276,-0.39085 0,-0.17616 0.0337,-0.34109 0.0748,-0.36651 0.0529,-0.0327 0.0602,-0.25204 0.025,-0.75156 -0.1533,-2.17308 0.0662,-3.10079 0.95989,-4.05754 l 0.2082,-0.22289 -0.42761,-0.97045 c -0.39595,-0.89858 -1.3262,-3.25791 -1.49626,-3.79488 -0.12612,-0.39816 -0.32338,-1.40059 -0.40543,-2.06017 -0.0432,-0.34724 -0.10614,-0.73949 -0.1399,-0.87166 -0.0338,-0.13216 -0.0614,-0.52403 -0.0614,-0.87081 0,-0.34677 -0.0188,-0.81017 -0.0417,-1.02977 l -0.0417,-0.39927 -0.22566,0.24978 c -0.27683,0.30642 -0.62469,0.48116 -0.84685,0.4254 -0.0903,-0.0227 -0.28587,-0.15351 -0.43453,-0.29075 l -0.27028,-0.24954 v -0.54187 c 0,-0.31694 -0.0276,-0.54186 -0.0665,-0.54186 -0.10532,0 -0.0758,-0.74633 0.0353,-0.89326 0.14282,-0.18883 0.11964,-0.39946 -0.0686,-0.62314 -0.0914,-0.1086 -0.16614,-0.23338 -0.16614,-0.27729 0,-0.0439 -0.0503,-0.16491 -0.11168,-0.2689 -0.1046,-0.17707 -0.1046,-0.21452 0,-0.59075 0.0614,-0.22093 0.11168,-0.51474 0.11168,-0.65292 0,-0.2404 -0.014,-0.25617 -0.32228,-0.3657 -0.4329,-0.15376 -0.64197,-0.32984 -0.87588,-0.73767 -0.18384,-0.32054 -0.19622,-0.38716 -0.1968,-1.05863 -5e-4,-0.641132 0.0208,-0.772127 0.20297,-1.244497 0.24073,-0.624229 0.65461,-1.207667 1.07919,-1.521327 0.27565,-0.20363 0.31547,-0.26795 0.4027,-0.650373 0.11852,-0.51964 0.41822,-0.911736 0.89535,-1.171421 0.27563,-0.150026 0.46627,-0.193745 1.05429,-0.241872 0.39481,-0.03232 0.7813,-0.07862 0.85889,-0.102922 0.10828,-0.03392 0.1737,0.0017 0.28158,0.153162 0.1392,0.195508 0.56042,0.411839 0.80184,0.411839 0.10828,0 0.12028,0.03693 0.0887,0.272556 -0.0424,0.316402 0.0286,0.389264 0.38149,0.39137 0.12792,7.54e-4 0.34428,0.0324 0.48078,0.07032 0.30314,0.08418 0.70569,-0.0082 0.88134,-0.202296 0.19132,-0.21142 0.23287,-0.161038 0.2326,0.282162 -2.7e-4,0.493931 -0.1729,0.847182 -0.41413,0.84758 -0.19642,3.26e-4 -0.54747,0.216837 -0.68032,0.41958 -0.15162,0.231418 -0.0399,0.463204 0.32696,0.678186 0.33739,0.197724 0.37395,0.317036 0.15302,0.499373 -0.14624,0.12068 -0.14698,0.128002 -0.0332,0.33171 0.1502,0.269035 0.1579,1.12621 0.0138,1.53469 -0.1749,0.49572 -0.72642,0.97068 -1.52052,1.30944 l -0.42976,0.18333 0.30092,0.42922 c 0.5569,0.79434 0.79172,1.3627 0.98733,2.38971 0.18732,0.98359 0.57,2.0389 1.15671,3.18995 1.00813,1.97782 1.11682,2.21659 1.42728,3.13539 0.16896,0.49999 0.30718,0.95606 0.30718,1.01348 0,0.0574 0.0301,0.1044 0.0669,0.1044 0.10062,0 3.00717,-0.52651 3.02943,-0.54877 0.0261,-0.0261 0.16012,-1.10535 0.16012,-1.28977 0,-0.12506 -0.22876,-0.26504 -1.5119,-0.92516 -2.19874,-1.13115 -3.03667,-1.56736 -3.06922,-1.59778 -0.0158,-0.0148 -3.3e-4,-0.0554 0.0344,-0.0901 0.04,-0.04 0.25812,-0.0164 0.59369,0.0645 0.29175,0.0702 0.90428,0.21717 1.36117,0.32652 0.45689,0.10934 1.33268,0.32007 1.94619,0.46828 0.61351,0.14822 1.15484,0.26948 1.20294,0.26948 0.11432,0 0.97122,-0.64908 0.97122,-0.73568 0,-0.10264 -1.73946,-3.54782 -1.80396,-3.57296 -0.0313,-0.0121 -0.0568,-0.0645 -0.0568,-0.1163 0,-0.0518 -0.0299,-0.0941 -0.0665,-0.0941 -0.0366,0 -0.0665,-0.0453 -0.0665,-0.10059 0,-0.0987 -0.1275,-0.36557 -0.20594,-0.43107 -0.0219,-0.0183 -0.0393,-0.0833 -0.0388,-0.1444 10e-4,-0.11328 0.18422,0.0736 1.63944,1.67291 0.41574,0.4569 1.00939,1.10735 1.31924,1.44545 l 0.56335,0.61473 h 0.57572 0.57572 l 0.17504,-0.84733 c 0.0963,-0.46603 0.31348,-1.52021 0.4827,-2.34262 0.16922,-0.82241 0.31646,-1.50409 0.32719,-1.51484 0.0221,-0.0221 0.0707,0.74457 0.16992,2.67784 0.0375,0.73103 0.0844,1.53981 0.10434,1.79728 l 0.0362,0.46813 0.51065,0.19644 c 0.28086,0.10804 0.5301,0.19643 0.55387,0.19643 0.0509,0 2.97874,-2.707 3.30167,-3.05267 0.2487,-0.26621 0.3478,-0.30101 0.29629,-0.10405 -0.019,0.0731 -0.0612,0.13293 -0.0935,0.13293 -0.0323,0 -0.0587,0.0449 -0.0587,0.0997 0,0.0548 -0.0264,0.0997 -0.0587,0.0997 -0.0323,0 -0.0758,0.0523 -0.0968,0.11629 -0.0371,0.11322 -0.27956,0.54516 -0.49438,0.88056 -0.0585,0.0914 -0.47169,0.80218 -0.91814,1.57955 l -0.81172,1.41341 0.2931,0.20166 0.29311,0.20166 1.11274,-0.30812 c 0.61201,-0.16949 1.67809,-0.47106 2.36908,-0.67017 0.69099,-0.19912 1.27773,-0.3536 1.30386,-0.3433 0.0261,0.0103 -0.84584,0.60189 -1.93771,1.31462 -1.40954,0.92013 -1.97622,1.32483 -1.95419,1.39561 0.017,0.0548 0.11292,0.32398 0.21299,0.59811 0.16334,0.44736 0.18338,0.59717 0.19568,1.46206 0.0134,0.93964 0.019,0.97522 0.23368,1.42883 0.19062,0.40314 0.22345,0.5501 0.24595,1.10157 0.0224,0.54842 0.007,0.67435 -0.11422,0.91115 -0.18202,0.35676 -0.1773,0.41901 0.0481,0.63498 0.12978,0.12434 0.37249,0.22972 0.78087,0.33906 1.13191,0.30306 2.22495,0.82916 2.57687,1.24029 0.36955,0.43175 0.58525,0.95719 0.6788,1.65362 0.17512,1.30361 0.23953,6.54218 0.27566,7.48507 l 0.0372,0.97009 -0.38345,0.7578 c -0.52367,1.03492 -0.89151,1.58779 -1.26051,1.89454 -0.17124,0.14238 -0.51654,0.52801 -0.7673,0.85698 -0.25076,0.32896 -0.58507,0.7213 -0.7429,0.87187 -0.56591,0.53986 -1.74505,1.43368 -2.3726,1.79851 -0.35152,0.20434 -0.86342,0.51305 -1.13755,0.686 -0.77741,0.49044 -1.41211,0.78647 -2.42308,1.13014 -0.51316,0.17444 -1.23323,-4.12902 -1.60016,-3.99765 -0.68331,0.24464 -1.61001,0.44232 -2.02438,0.43182 -0.12794,-0.003 -0.36717,-0.0344 -0.53165,-0.0691 z m 0.64856,-16.35409 c 0.17934,-0.19144 0.28184,-0.46379 0.28184,-0.74886 0,-0.20297 -0.0295,-0.23821 -0.29911,-0.35747 -0.1645,-0.0728 -0.46087,-0.2853 -0.65858,-0.47229 l -0.35948,-0.33998 -0.72041,0.22403 c -0.89678,0.27886 -0.92887,0.34813 -0.38565,0.8323 0.26716,0.23812 0.51438,0.38372 0.85963,0.50629 0.26654,0.0946 0.61525,0.24671 0.7749,0.33798 0.35345,0.20205 0.33506,0.20139 0.50686,0.018 z m -1.07452,-3.28038 c 0.0203,-0.0771 -0.0178,-0.25658 -0.0847,-0.39874 l -0.12166,-0.25847 -1.66095,-0.0144 -1.66095,-0.0144 0.34698,0.18058 c 0.22131,0.11518 0.42275,0.2889 0.5562,0.47964 0.11508,0.16448 0.3581,0.45248 0.54006,0.63999 l 0.33083,0.34094 0.8586,-0.40739 c 0.62379,-0.29598 0.86872,-0.44576 0.89558,-0.54767 z"
       id="path4587"
       inkscape:connector-curvature="0"
       sodipodi:nodetypes="cccccscsccsccccccccsccccccssccsccsccccccccccscccscccccccccccscsscsscccccsscsssccscccccccscccsccssscccccccccscccccccccccccccccsccccccsccccccccccccccccccccc" />
    <path
       style="fill:#ffffff;stroke-width:0.157407"
       d="m -67.523349,130.91319 -0.996498,-1.67818 -1.28858,-0.0258 c -1.194418,-0.0239 -1.32382,-0.0596 -1.770829,-0.48813 -0.265235,-0.25428 -0.482248,-0.54256 -0.482248,-0.64063 0,-0.0981 -0.212499,-0.41632 -0.472221,-0.70724 -0.354253,-0.39678 -0.47222,-0.6829 -0.47222,-1.14532 0,-0.33902 -0.10806,-0.98811 -0.240134,-1.44243 -0.156862,-0.53959 -0.193079,-0.95322 -0.104441,-1.19284 0.09083,-0.24555 0.06202,-0.51448 -0.08716,-0.81352 -0.331074,-0.66366 -0.08503,-1.23996 0.693123,-1.62346 l 0.638776,-0.31481 -0.517176,-1.94287 c -0.284447,-1.06857 -0.540108,-1.95974 -0.568136,-1.98037 -0.02803,-0.0206 -0.744764,-0.11564 -1.592745,-0.21112 -2.292297,-0.25812 -3.163201,-0.94391 -2.327872,-1.83307 l 0.327561,-0.34868 -0.472002,-0.34896 c -0.259601,-0.19194 -0.472002,-0.47526 -0.472002,-0.62962 0,-0.30004 0.644918,-0.97469 1.208441,-1.26416 l 0.342704,-0.17605 -0.372579,-0.9507 c -0.814501,-2.07836 -1.15293,-5.1336 -0.806621,-7.28192 l 0.121642,-0.75461 0.545719,0.47914 c 0.300145,0.26353 0.608293,0.47915 0.684774,0.47915 0.07648,0 0.240396,0.0389 0.364257,0.0864 0.185595,0.0712 0.204388,-0.0464 0.10686,-0.66898 -0.19128,-1.221 0.165395,-2.67338 0.889759,-3.623068 0.314178,-0.411911 1.623233,-1.461029 1.823021,-1.461029 0.02769,0 0.05035,0.655206 0.05035,1.45602 0,1.277247 0.0535,1.562317 0.435716,2.321747 0.239644,0.47616 0.637784,1.10002 0.884759,1.38637 l 0.449044,0.52062 0.593221,-0.40257 c 0.814992,-0.55307 1.02151,-0.52157 1.02151,0.15578 0,0.35913 0.234419,0.98544 0.65705,1.75551 0.575962,1.04943 0.66588,1.3497 0.728596,2.43308 0.04111,0.71011 -0.0082,1.52021 -0.115814,1.90418 l -0.187358,0.66831 -1.682436,0.0195 c -0.989536,0.0115 -1.974161,0.1139 -2.39077,0.24867 -0.671508,0.21723 -0.589321,0.22538 1.580975,0.15663 1.803321,-0.0571 2.474094,-0.0188 3.159784,0.18054 1.059565,0.30803 1.513681,0.73882 1.295129,1.22861 -0.14627,0.32781 -0.245523,0.33982 -2.975547,0.36006 -1.728047,0.0128 -3.149196,0.10109 -3.661479,0.22744 -1.090142,0.26886 -0.962374,0.39824 0.145299,0.14713 1.175003,-0.26637 4.597959,-0.26171 5.524334,0.008 1.393621,0.40504 1.602683,1.18687 0.519453,1.9426 -0.613312,0.4279 -2.411736,1.14978 -2.541399,1.02012 -0.03565,-0.0357 -0.117415,-0.37296 -0.181709,-0.74958 -0.110018,-0.64445 -0.158391,-0.69694 -0.82189,-0.89184 -0.691989,-0.20326 -1.603621,-0.15505 -2.028045,0.10725 -0.126609,0.0783 0.0705,0.10058 0.480188,0.0543 0.424694,-0.0479 0.909114,0.0111 1.245649,0.15177 l 0.550692,0.23009 0.283124,2.02953 c 0.155718,1.11624 0.3148,2.14392 0.353513,2.28374 0.05424,0.19592 -0.0804,0.27444 -0.587119,0.34241 -0.43138,0.0579 -0.798123,0.23529 -1.066362,0.5159 l -0.408852,0.42771 0.38919,-0.25855 c 0.692391,-0.45997 1.382195,-0.32236 2.916356,0.58177 1.827366,1.07692 2.248829,1.64811 2.496836,3.38387 0.177657,1.2434 0.20324,1.2958 1.147328,2.35028 l 0.965619,1.07851 -1.4658,2.40296 -1.465799,2.40296 z m -1.170746,-3.63158 c 0.16952,-0.44175 0.102452,-0.79781 -0.202213,-1.07354 -0.249143,-0.22547 -0.270188,-0.3425 -0.128895,-0.71684 0.135214,-0.35822 0.116132,-0.52785 -0.09576,-0.85123 -0.145543,-0.22213 -0.264623,-0.65893 -0.264623,-0.97068 0,-0.31175 -0.07543,-0.70775 -0.167614,-0.88 -0.322955,-0.60345 -0.0615,-0.59303 0.735982,0.0293 0.787284,0.6144 0.802035,0.64118 0.690115,1.25322 -0.10775,0.58925 0.01611,1.79506 0.203655,1.98261 0.047,0.047 0.05215,-0.18602 0.01145,-0.51782 -0.06464,-0.52689 0.163282,-1.69205 0.472116,-2.41346 0.06685,-0.15615 -0.04557,-0.31929 -0.332035,-0.48176 -0.238214,-0.13512 -0.763318,-0.43923 -1.1669,-0.67579 l -0.733782,-0.43013 -0.359679,0.63996 c -0.236159,0.42019 -0.524726,0.69203 -0.840286,0.79157 l -0.480608,0.15161 0.472221,-0.0542 c 0.259722,-0.0298 0.593213,-0.10605 0.741093,-0.16945 0.343072,-0.14709 0.553912,0.56009 0.320027,1.07341 -0.11853,0.26016 -0.100319,0.42866 0.07104,0.65738 0.155392,0.2074 0.202776,0.51808 0.145504,0.95404 -0.07626,0.58045 -0.0436,0.66533 0.319703,0.83086 0.331731,0.15114 0.392263,0.26863 0.335981,0.65212 -0.07272,0.49544 0.09259,0.6381 0.253501,0.21876 z m -1.956284,-5.09249 c 0.24526,-0.45828 0.207889,-0.50686 -0.348627,-0.45319 -0.392093,0.0378 -0.52332,0.13203 -0.561872,0.40348 -0.04081,0.28735 0.02496,0.35417 0.348628,0.35417 0.233307,0 0.466574,-0.1264 0.561871,-0.30446 z m -4.511603,-12.68162 c -0.102802,-1.45671 -0.01838,-1.58808 0.59388,-0.92415 0.636256,0.68994 1.790567,1.04527 2.314861,0.71259 0.162704,-0.10325 0.155083,-0.30732 -0.03935,-1.05381 -0.132622,-0.50917 -0.241133,-1.27568 -0.241133,-1.70334 v -0.77759 l 0.445979,0.6139 c 0.245286,0.33763 0.572412,0.71806 0.726943,0.84537 0.253367,0.20874 0.314038,0.19001 0.617616,-0.19072 l 0.336648,-0.4222 0.344608,0.50553 c 0.453611,0.66544 0.983359,1.84913 0.987704,2.20696 0.002,0.16822 0.07502,0.24052 0.178329,0.17666 0.346846,-0.21435 0.07492,-1.82052 -0.445318,-2.6303 -0.265792,-0.41372 -0.530872,-1.00602 -0.589067,-1.31624 l -0.105809,-0.56402 -0.380373,0.35735 c -0.209205,0.19653 -0.42342,0.49297 -0.476037,0.65875 -0.0927,0.29207 -0.105547,0.29251 -0.414543,0.0144 -0.623274,-0.56088 -1.728575,-2.40402 -2.34316,-3.90731 l -0.193055,-0.47223 -0.113643,0.47223 c -0.200263,0.83215 -0.152725,3.27107 0.08569,4.39652 0.127115,0.60005 0.206542,1.11557 0.176504,1.14561 -0.09781,0.0978 -0.912238,-0.26738 -1.336704,-0.59939 -0.227889,-0.17825 -0.618081,-0.61955 -0.867093,-0.98065 l -0.45275,-0.65655 0.09417,1.41666 c 0.0518,0.77917 0.194225,1.73541 0.316516,2.12499 0.267732,0.85291 0.708736,1.88888 0.80408,1.88888 0.03791,0 0.02644,-0.60208 -0.0255,-1.33795 z"
       id="path46" />
    <path
       style="fill:#222222;fill-opacity:1;fill-rule:nonzero;stroke:none;stroke-width:0.5;stroke-linecap:butt;stroke-linejoin:round;stroke-miterlimit:4;stroke-dasharray:none;stroke-dashoffset:0;stroke-opacity:0.909449;paint-order:normal"
       d="m -96.593606,132.18512 v 8.33437 c 0,3.07817 2.478088,5.55625 5.55625,5.55625 h 38.893751 c 3.078162,0 5.55625,-2.47808 5.55625,-5.55625 v -8.33437 z"
       id="rect5205"
       inkscape:connector-curvature="0" />
    <text
       xml:space="preserve"
       style="font-style:normal;font-variant:normal;font-weight:500;font-stretch:normal;font-size:8.46667px;line-height:4.23333px;font-family:Montserrat;-inkscape-font-specification:'Montserrat Medium';text-align:center;text-anchor:middle;opacity:1;fill:#eeeeee;fill-opacity:1;fill-rule:nonzero;stroke:none;stroke-width:4.23333;stroke-linecap:butt;stroke-linejoin:round;stroke-miterlimit:4;stroke-dasharray:none;stroke-dashoffset:0;stroke-opacity:1;paint-order:stroke fill markers"
       x="-355.53735"
       y="24.113144"
       id="text4627-36-3"><tspan
         sodipodi:role="line"
         id="tspan4625-0-6"
         x="-355.53735"
         y="24.113144"
         style="font-style:normal;font-variant:normal;font-weight:500;font-stretch:normal;font-size:8.46667px;font-family:Montserrat;-inkscape-font-specification:'Montserrat Medium';text-align:center;text-anchor:middle;fill:#eeeeee;fill-opacity:1;stroke-width:4.23333">ORD</tspan></text>
    <g
       aria-label="LIBERTARIANISM"
       id="text85"
       style="font-size:4.81937px;line-height:1.25;font-family:sans-serif;stroke-width:0.0753028">
      <path
         d="m -92.640894,141.64532 h -2.527345 v -3.50392 h 0.903632 v 2.8262 h 1.623713 z"
         style="font-style:normal;font-variant:normal;font-weight:bold;font-stretch:normal;font-family:sans-serif;-inkscape-font-specification:'sans-serif Bold';fill:#ffffff;stroke-width:0.0753028"
         id="path19" />
      <path
         d="m -90.202971,141.64532 h -2.051997 v -0.62124 h 0.574183 v -2.26143 h -0.574183 v -0.62125 h 2.051997 v 0.62125 h -0.574182 v 2.26143 h 0.574182 z"
         style="font-style:normal;font-variant:normal;font-weight:bold;font-stretch:normal;font-family:sans-serif;-inkscape-font-specification:'sans-serif Bold';fill:#ffffff;stroke-width:0.0753028"
         id="path21" />
      <path
         d="m -86.46843,140.57226 q 0,0.25415 -0.103541,0.45417 -0.101188,0.20002 -0.280032,0.3318 -0.207082,0.15532 -0.456522,0.2212 -0.247087,0.0659 -0.628306,0.0659 h -1.529586 v -3.50392 h 1.360155 q 0.423577,0 0.618893,0.0282 0.19767,0.0282 0.390633,0.12472 0.200022,0.10118 0.296504,0.27297 0.09883,0.16943 0.09883,0.38828 0,0.25414 -0.134133,0.44946 -0.134133,0.19296 -0.378867,0.30121 v 0.0188 q 0.343569,0.0682 0.543591,0.28238 0.202376,0.21414 0.202376,0.56477 z m -1.157778,-1.44016 q 0,-0.0871 -0.04471,-0.17414 -0.04236,-0.0871 -0.152958,-0.12943 -0.09884,-0.0377 -0.247087,-0.04 -0.145899,-0.005 -0.411812,-0.005 h -0.08472 v 0.74126 h 0.141192 q 0.214142,0 0.364748,-0.007 0.150605,-0.007 0.237674,-0.0471 0.122366,-0.0541 0.160018,-0.13884 0.03765,-0.0871 0.03765,-0.20002 z m 0.221202,1.42604 q 0,-0.16708 -0.06589,-0.2565 -0.06354,-0.0918 -0.218849,-0.13648 -0.105894,-0.0306 -0.291797,-0.0329 -0.185904,-0.002 -0.38828,-0.002 h -0.197669 v 0.87304 h 0.06589 q 0.381219,0 0.545944,-0.002 0.164724,-0.002 0.303564,-0.0612 0.141192,-0.0588 0.192963,-0.15531 0.05412,-0.0988 0.05412,-0.22591 z"
         style="font-style:normal;font-variant:normal;font-weight:bold;font-stretch:normal;font-family:sans-serif;-inkscape-font-specification:'sans-serif Bold';fill:#ffffff;stroke-width:0.0753028"
         id="path23" />
      <path
         d="m -83.261007,141.64532 h -2.534405 v -3.50392 h 2.534405 v 0.67772 h -1.635479 v 0.60478 h 1.517819 v 0.67772 h -1.517819 v 0.86598 h 1.635479 z"
         style="font-style:normal;font-variant:normal;font-weight:bold;font-stretch:normal;font-family:sans-serif;-inkscape-font-specification:'sans-serif Bold';fill:#ffffff;stroke-width:0.0753028"
         id="path25" />
      <path
         d="m -80.538346,139.21446 q 0,-0.13178 -0.05412,-0.22591 -0.05412,-0.0941 -0.185903,-0.14825 -0.09177,-0.0377 -0.214142,-0.0447 -0.122367,-0.009 -0.284738,-0.009 h -0.327096 v 0.94363 h 0.277678 q 0.216495,0 0.362394,-0.0212 0.145899,-0.0212 0.244734,-0.0965 0.09413,-0.073 0.136486,-0.16002 0.04471,-0.0894 0.04471,-0.23767 z m 1.409572,2.43086 h -1.103655 l -0.955402,-1.28485 h -0.416518 v 1.28485 h -0.898926 v -3.50392 h 1.515466 q 0.310624,0 0.534178,0.0353 0.223555,0.0353 0.418871,0.15295 0.19767,0.11767 0.312977,0.30592 0.117661,0.18591 0.117661,0.46829 0,0.38828 -0.181198,0.63301 -0.178843,0.24474 -0.512999,0.40711 z"
         style="font-style:normal;font-variant:normal;font-weight:bold;font-stretch:normal;font-family:sans-serif;-inkscape-font-specification:'sans-serif Bold';fill:#ffffff;stroke-width:0.0753028"
         id="path27" />
      <path
         d="m -75.991949,138.81912 h -1.094242 v 2.8262 h -0.903632 v -2.8262 h -1.094241 v -0.67772 h 3.092115 z"
         style="font-style:normal;font-variant:normal;font-weight:bold;font-stretch:normal;font-family:sans-serif;-inkscape-font-specification:'sans-serif Bold';fill:#ffffff;stroke-width:0.0753028"
         id="path29" />
      <path
         d="m -72.210342,141.64532 h -0.934224 l -0.24238,-0.70831 h -1.298971 l -0.24238,0.70831 h -0.910692 l 1.294264,-3.50392 h 1.040118 z m -1.395453,-1.35074 -0.430637,-1.25661 -0.430637,1.25661 z"
         style="font-style:normal;font-variant:normal;font-weight:bold;font-stretch:normal;font-family:sans-serif;-inkscape-font-specification:'sans-serif Bold';fill:#ffffff;stroke-width:0.0753028"
         id="path31" />
      <path
         d="m -69.741828,139.21446 q 0,-0.13178 -0.05412,-0.22591 -0.05412,-0.0941 -0.185904,-0.14825 -0.09177,-0.0377 -0.214142,-0.0447 -0.122367,-0.009 -0.284738,-0.009 h -0.327096 v 0.94363 h 0.277679 q 0.216495,0 0.362394,-0.0212 0.145899,-0.0212 0.244733,-0.0965 0.09413,-0.073 0.136486,-0.16002 0.04471,-0.0894 0.04471,-0.23767 z m 1.409572,2.43086 h -1.103655 l -0.955402,-1.28485 h -0.416518 v 1.28485 h -0.898925 v -3.50392 h 1.515466 q 0.310623,0 0.534178,0.0353 0.223555,0.0353 0.418871,0.15295 0.197669,0.11767 0.312976,0.30592 0.117661,0.18591 0.117661,0.46829 0,0.38828 -0.181197,0.63301 -0.178844,0.24474 -0.513,0.40711 z"
         style="font-style:normal;font-variant:normal;font-weight:bold;font-stretch:normal;font-family:sans-serif;-inkscape-font-specification:'sans-serif Bold';fill:#ffffff;stroke-width:0.0753028"
         id="path33" />
      <path
         d="m -66.042586,141.64532 h -2.051997 v -0.62124 h 0.574183 v -2.26143 h -0.574183 v -0.62125 h 2.051997 v 0.62125 h -0.574182 v 2.26143 h 0.574182 z"
         style="font-style:normal;font-variant:normal;font-weight:bold;font-stretch:normal;font-family:sans-serif;-inkscape-font-specification:'sans-serif Bold';fill:#ffffff;stroke-width:0.0753028"
         id="path35" />
      <path
         d="m -62.068016,141.64532 h -0.934223 l -0.242381,-0.70831 h -1.298971 l -0.24238,0.70831 h -0.910692 l 1.294265,-3.50392 h 1.040118 z m -1.395452,-1.35074 -0.430637,-1.25661 -0.430637,1.25661 z"
         style="font-style:normal;font-variant:normal;font-weight:bold;font-stretch:normal;font-family:sans-serif;-inkscape-font-specification:'sans-serif Bold';fill:#ffffff;stroke-width:0.0753028"
         id="path37" />
      <path
         d="m -58.378186,141.64532 h -0.870687 l -1.487228,-2.40497 v 2.40497 h -0.828329 v -3.50392 h 1.080122 l 1.277792,2.00728 v -2.00728 h 0.82833 z"
         style="font-style:normal;font-variant:normal;font-weight:bold;font-stretch:normal;font-family:sans-serif;-inkscape-font-specification:'sans-serif Bold';fill:#ffffff;stroke-width:0.0753028"
         id="path39" />
      <path
         d="m -55.589634,141.64532 h -2.051997 v -0.62124 h 0.574182 v -2.26143 h -0.574182 v -0.62125 h 2.051997 v 0.62125 h -0.574183 v 2.26143 h 0.574183 z"
         style="font-style:normal;font-variant:normal;font-weight:bold;font-stretch:normal;font-family:sans-serif;-inkscape-font-specification:'sans-serif Bold';fill:#ffffff;stroke-width:0.0753028"
         id="path41" />
      <path
         d="m -52.048057,140.54402 q 0,0.51771 -0.44005,0.84245 -0.437696,0.32239 -1.190723,0.32239 -0.435343,0 -0.760086,-0.0753 -0.322389,-0.0777 -0.604774,-0.19532 v -0.84009 h 0.09883 q 0.280032,0.22355 0.625954,0.34357 0.348274,0.12001 0.668311,0.12001 0.08236,0 0.216495,-0.0141 0.134133,-0.0141 0.218848,-0.0471 0.103541,-0.0424 0.169431,-0.1059 0.06824,-0.0635 0.06824,-0.18826 0,-0.1153 -0.09884,-0.19766 -0.09648,-0.0847 -0.284738,-0.12943 -0.197669,-0.0471 -0.418871,-0.0871 -0.218848,-0.0424 -0.411811,-0.10589 -0.442403,-0.14355 -0.637719,-0.38828 -0.192963,-0.24709 -0.192963,-0.61184 0,-0.48946 0.437696,-0.79774 0.44005,-0.31062 1.12954,-0.31062 0.345922,0 0.68243,0.0682 0.338862,0.0659 0.585949,0.16708 v 0.80715 h -0.09648 q -0.211789,-0.16943 -0.520059,-0.28238 -0.305917,-0.11531 -0.625954,-0.11531 -0.112954,0 -0.225908,0.0165 -0.1106,0.0141 -0.214142,0.0565 -0.09178,0.0353 -0.157664,0.10825 -0.06589,0.0706 -0.06589,0.16237 0,0.13884 0.105894,0.21414 0.105894,0.0729 0.400045,0.13413 0.192963,0.04 0.369454,0.0777 0.178844,0.0376 0.383573,0.10354 0.402398,0.13178 0.593008,0.36004 0.192963,0.22591 0.192963,0.5883 z"
         style="font-style:normal;font-variant:normal;font-weight:bold;font-stretch:normal;font-family:sans-serif;-inkscape-font-specification:'sans-serif Bold';fill:#ffffff;stroke-width:0.0753028"
         id="path43" />
      <path
         d="m -47.755807,141.64532 h -0.898925 v -2.34614 l -0.649486,1.52252 h -0.6236 l -0.649485,-1.52252 v 2.34614 h -0.851862 v -3.50392 h 1.049531 l 0.788325,1.75784 0.785971,-1.75784 h 1.049531 z"
         style="font-style:normal;font-variant:normal;font-weight:bold;font-stretch:normal;font-family:sans-serif;-inkscape-font-specification:'sans-serif Bold';fill:#ffffff;stroke-width:0.0753028"
         id="path45" />
    </g>
  </g>
</svg>
