<?xml version="1.0" encoding="UTF-8" standalone="no"?>
<svg
   xmlns:dc="http://purl.org/dc/elements/1.1/"
   xmlns:cc="http://creativecommons.org/ns#"
   xmlns:rdf="http://www.w3.org/1999/02/22-rdf-syntax-ns#"
   xmlns:svg="http://www.w3.org/2000/svg"
   xmlns="http://www.w3.org/2000/svg"
   xmlns:sodipodi="http://sodipodi.sourceforge.net/DTD/sodipodi-0.dtd"
   xmlns:inkscape="http://www.inkscape.org/namespaces/inkscape"
   width="200"
   height="200"
   viewBox="0 0 52.916668 52.916666"
   version="1.1"
   id="svg8"
   inkscape:version="1.0.2-2 (e86c870879, 2021-01-15)"
   sodipodi:docname="progress.svg">
  <defs
     id="defs2">
    <inkscape:path-effect
       effect="envelope"
       id="path-effect4658"
       is_visible="true"
       yy="true"
       xx="true"
       bendpath1="m -199.08406,108.42369 h 7.0057"
       bendpath2="m -192.07836,108.42369 v 6.75242"
       bendpath3="m -199.08406,115.17611 h 7.0057"
       bendpath4="m -199.08406,108.42369 v 6.75242" />
    <inkscape:path-effect
       effect="bend_path"
       id="path-effect4656"
       is_visible="true"
       bendpath="m -192.00142,114.60623 c 2.12577,-0.53066 4.48261,0.85111 7.0057,0"
       prop_scale="1"
       scale_y_rel="false"
       vertical="false"
       bendpath-nodetypes="cc" />
    <inkscape:path-effect
       effect="bounding_box"
       id="path-effect4654"
       is_visible="true"
       linkedpath=""
       visualbounds="false" />
  </defs>
  <sodipodi:namedview
     id="base"
     pagecolor="#ffffff"
     bordercolor="#666666"
     borderopacity="1.0"
     inkscape:pageopacity="0.0"
     inkscape:pageshadow="2"
     inkscape:zoom="2"
     inkscape:cx="187.55617"
     inkscape:cy="142.69341"
     inkscape:document-units="px"
     inkscape:current-layer="layer1"
     showgrid="false"
     fit-margin-top="0"
     fit-margin-left="0"
     fit-margin-right="0"
     fit-margin-bottom="0"
     inkscape:window-width="1920"
     inkscape:window-height="1017"
     inkscape:window-x="-8"
     inkscape:window-y="-8"
     inkscape:window-maximized="1"
     showguides="false"
     inkscape:object-nodes="true"
     units="px"
     inkscape:snap-page="true"
     inkscape:document-rotation="0" />
  <metadata
     id="metadata5">
    <rdf:RDF>
      <cc:Work
         rdf:about="">
        <dc:format>image/svg+xml</dc:format>
        <dc:type
           rdf:resource="http://purl.org/dc/dcmitype/StillImage" />
        <dc:title />
      </cc:Work>
    </rdf:RDF>
  </metadata>
  <g
     inkscape:label="Layer 1"
     inkscape:groupmode="layer"
     id="layer1"
     transform="translate(98.048812,-95.14345)">
    <g
       style="stroke-width:0.5"
       id="g5375"
       transform="matrix(2,0,0,2,-98.048812,95.143449)">
      <rect
         ry="1.984375"
         rx="1.984375"
         style="opacity:1;fill:#222222;fill-opacity:1;fill-rule:nonzero;stroke:none;stroke-width:0.25;stroke-linecap:butt;stroke-linejoin:round;stroke-miterlimit:4;stroke-dasharray:none;stroke-dashoffset:0;stroke-opacity:0.90944878;paint-order:normal"
         id="rect5363"
         width="26.458334"
         height="26.458334"
         x="0"
         y="-1.110223e-16" />
      <rect
         ry="1.3229166"
         rx="1.3229166"
         y="1.322917"
         x="1.322917"
         height="23.8125"
         width="23.8125"
         id="rect5365"
         style="opacity:1;fill:#9c27b0;fill-opacity:1;fill-rule:nonzero;stroke:none;stroke-width:0.25;stroke-linecap:butt;stroke-linejoin:round;stroke-miterlimit:4;stroke-dasharray:none;stroke-dashoffset:0;stroke-opacity:0.90944878;paint-order:normal" />
      <path
         inkscape:connector-curvature="0"
         style="font-style:normal;font-variant:normal;font-weight:bold;font-stretch:normal;font-size:4.23333px;line-height:4.23333px;font-family:Montserrat;-inkscape-font-specification:'Montserrat Bold';text-align:center;text-anchor:middle;opacity:1;fill:#ffffff;fill-opacity:1;fill-rule:nonzero;stroke:none;stroke-width:0.200355;stroke-linecap:butt;stroke-linejoin:round;stroke-miterlimit:4;stroke-dasharray:none;stroke-dashoffset:0;stroke-opacity:0.909449;paint-order:normal"
         d="m 13.318115,2.7781042 a 0.12719744,0.12719744 0 0 0 -0.109295,0.09191 0.12719744,0.12719744 0 0 0 0,0.00202 c -0.423132,0.05971 -0.822915,0.3216468 -1.186401,0.903208 -0.381935,0.6214517 -0.669743,1.5139037 -0.890291,2.625174 C 10.093252,6.0411548 9.1896117,5.8391014 8.4582667,5.8519312 7.689585,5.8655065 7.1551278,6.0620728 6.9146601,6.4828875 a 0.12719744,0.12719744 0 0 0 0,0.00201 c -0.082808,0.1505388 -0.1237097,0.3216637 -0.1237097,0.5087407 0,0.3374098 0.1244458,0.7145523 0.3587006,1.1362175 0.3466562,0.641193 0.9679017,1.327718 1.7969817,2.0558213 -0.841919,0.740441 -1.4710161,1.431891 -1.8178489,2.067746 a 0.12719744,0.12719744 0 0 0 0,0.0016 c -0.2204718,0.420921 -0.3378334,0.789907 -0.3378334,1.11381 0,0.187172 0.041063,0.358291 0.1237097,0.50874 a 0.12719744,0.12719744 0 0 0 0,0.002 c 0.2335267,0.414303 0.756349,0.613656 1.5118116,0.640397 a 0.12719744,0.12719744 0 0 0 0.002,0 c 0.732333,0.01911 1.6457353,-0.187176 2.7021783,-0.557925 0.219695,1.080707 0.499561,1.965911 0.870917,2.593376 a 0.12719744,0.12719744 0 0 0 0,0.0016 c 0.400963,0.661592 0.841962,1.027414 1.329479,1.027414 0.482018,0 0.916338,-0.365849 1.310599,-1.027414 a 0.12719744,0.12719744 0 0 0 0,-0.0016 c 0.371677,-0.62801 0.653638,-1.513321 0.8734,-2.595363 1.065755,0.366741 1.981587,0.569799 2.709631,0.550472 0.754483,-0.01986 1.277119,-0.215665 1.511313,-0.628969 v -0.002 c 0.09045,-0.151458 0.135133,-0.328308 0.135133,-0.522154 0,-0.323893 -0.117112,-0.689229 -0.337834,-1.103924 a 0.12719744,0.12719744 0 0 0 0,-0.002 c -0.354891,-0.638807 -0.988938,-1.328322 -1.83822,-2.06726 0.830069,-0.7288413 1.460711,-1.4169613 1.819337,-2.0637723 h -0.002 c 0.234356,-0.4151585 0.358701,-0.7857631 0.358701,-1.1173362 0,-0.1938923 -0.04469,-0.370712 -0.135135,-0.5221532 C 19.494868,6.0605542 18.959166,5.8653263 18.184917,5.8519774 17.455476,5.8389792 16.550141,6.0411908 15.509069,6.3984743 15.28858,5.2885844 15.002869,4.3962077 14.62126,3.7752887 14.226948,3.133695 13.800101,2.7781802 13.331031,2.7781802 a 0.12719744,0.12719744 0 0 0 -0.01298,0 z m 0.01298,0.7511842 c 0.120485,0 0.246609,0.054174 0.387021,0.1858092 0.14041,0.1316345 0.288483,0.3402199 0.437196,0.6249942 0.277517,0.5248658 0.500019,1.3123707 0.67219,2.2987641 -0.50093,0.1925708 -0.999228,0.4098315 -1.494479,0.6552997 C 12.825017,7.047882 12.318884,6.8319588 11.815749,6.6388559 11.98792,5.6524625 12.210424,4.8649576 12.48794,4.3400918 12.636484,4.0556492 12.785883,3.8466329 12.929113,3.7150976 13.072339,3.5835613 13.202519,3.5292884 13.331036,3.5292884 Z M 8.4766517,6.531047 c 0.07301,-8.815e-4 0.150058,5.089e-4 0.231515,0.00456 0.598988,0.030294 1.3771743,0.2301795 2.2888283,0.564879 -0.07969,0.5334491 -0.139348,1.0775847 -0.176369,1.6320427 -0.464648,0.313733 -0.9049213,0.63741 -1.3220243,0.972752 -0.751595,-0.62204 -1.316377,-1.197033 -1.64297,-1.705072 a 0.12719744,0.12719744 0 0 0 0,-0.002 C 7.6787612,7.7265943 7.5709733,7.492519 7.5287303,7.3016882 7.4864872,7.1108557 7.5052491,6.9690034 7.573946,6.8545539 a 0.12719744,0.12719744 0 0 0 0.00201,-0.00201 c 0.062287,-0.1096312 0.1735632,-0.1943747 0.3606857,-0.2513906 0.140343,-0.042764 0.321023,-0.067151 0.540039,-0.070043 z m 9.6998223,0 c 0.2191,0.00289 0.400266,0.027185 0.542026,0.070043 0.187912,0.056812 0.302109,0.1417528 0.367644,0.2513882 0.0659,0.1140811 0.08554,0.2557977 0.04173,0.4471342 -0.04382,0.1913374 -0.153908,0.4267485 -0.330877,0.6985223 a 0.12719744,0.12719744 0 0 0 0,0.002 c -0.326489,0.513918 -0.894774,1.092218 -1.65241,1.714514 -0.417382,-0.33557 -0.856531,-0.660815 -1.321525,-0.974743 -0.03722,-0.559641 -0.101171,-1.1060004 -0.186306,-1.639492 0.911636,-0.3345834 1.694461,-0.5343756 2.306216,-0.5648799 h 0.0016 c 0.08146,-0.004 0.158981,-0.00537 0.232013,-0.00456 z m -3.234266,0.8361417 c 0.03674,0.2836613 0.06482,0.572909 0.08992,0.865452 -0.140708,-0.08674 -0.281572,-0.173262 -0.422293,-0.262815 a 0.12719744,0.12719744 0 0 0 -0.0055,-0.0034 c -0.156392,-0.08692 -0.305762,-0.166738 -0.456498,-0.2479099 0.26764,-0.1225493 0.532708,-0.2403944 0.794407,-0.3512496 z m -3.239236,0.00746 c 0.261723,0.1070839 0.526675,0.2240263 0.794408,0.3457815 -0.149102,0.081086 -0.296707,0.1611035 -0.448625,0.2479105 a 0.12719744,0.12719744 0 0 0 -0.0039,0.0016 c -0.146543,0.09052 -0.29004,0.177157 -0.433716,0.264804 0.02515,-0.291907 0.05512,-0.5799492 0.09191,-0.8599873 z m 1.607695,0.751184 c 0.304684,0.159174 0.6094,0.321209 0.91414,0.491847 0.297912,0.170213 0.588447,0.347976 0.874892,0.529606 0.01708,0.340674 0.02633,0.686071 0.02633,1.0383433 0,0.34657 -0.0092,0.690133 -0.02633,1.03089 -0.280372,0.181159 -0.571439,0.357664 -0.874892,0.52762 a 0.12719744,0.12719744 0 0 0 -0.002,0.002 c -0.29761,0.176124 -0.596257,0.340314 -0.893755,0.499291 -0.307337,-0.158406 -0.607069,-0.323961 -0.897248,-0.4993 a 0.12719744,0.12719744 0 0 0 -0.0059,-0.002 c -0.309496,-0.169906 -0.601901,-0.346597 -0.882409,-0.527619 -0.01138,-0.340878 -0.01689,-0.684214 -0.01689,-1.030891 0,-0.3523683 0.0055,-0.6974943 0.01689,-1.0383443 0.286612,-0.181513 0.580421,-0.359401 0.88433,-0.529604 a 0.12719744,0.12719744 0 0 0 0.002,0 c 0.290987,-0.169702 0.58422,-0.33344 0.880859,-0.491832 z m 0.02037,1.190369 c -0.151366,0 -0.297165,0.04006 -0.431732,0.114769 -0.137362,0.06957 -0.247175,0.177164 -0.32293,0.31349 -0.07527,0.135473 -0.11477,0.2843733 -0.11477,0.4411723 0,0.151331 0.03998,0.2991 0.11477,0.43372 a 0.12719744,0.12719744 0 0 0 0.002,0.002 c 0.07645,0.13 0.18582,0.234947 0.320944,0.310012 0.134606,0.07478 0.280401,0.11426 0.431733,0.11426 0.145977,0 0.289099,-0.04006 0.422789,-0.11426 0.135125,-0.07506 0.244485,-0.180022 0.320942,-0.310012 a 0.12719744,0.12719744 0 0 0 0.002,-0.002 c 0.07478,-0.134616 0.114274,-0.282386 0.114274,-0.43372 0,-0.156838 -0.039,-0.3057083 -0.114274,-0.4411723 -0.07575,-0.136398 -0.185593,-0.243921 -0.32293,-0.31349 -0.133734,-0.0743 -0.276844,-0.114769 -0.422789,-0.114769 z m -2.551647,0.353235 c -0.0029,0.171575 -0.0059,0.3417493 -0.0059,0.5161923 0,0.169686 0.0029,0.339024 0.0059,0.508739 -0.243104,-0.167123 -0.480665,-0.335884 -0.705973,-0.508739 0.225458,-0.176798 0.462675,-0.3480763 0.705973,-0.5161923 z m 5.086395,0 c 0.244616,0.168447 0.484192,0.3389973 0.713924,0.5161923 -0.229576,0.173241 -0.4695,0.341283 -0.713924,0.508739 0.0058,-0.169584 0.01341,-0.339168 0.01341,-0.508739 0,-0.174289 -0.0076,-0.3447303 -0.01341,-0.5161923 z M 9.4911487,10.657115 c 0.4228,0.335494 0.8643013,0.660341 1.3294773,0.974254 0.03713,0.553765 0.09678,1.097202 0.176369,1.630051 -0.93017,0.34074 -1.7189103,0.541205 -2.3171453,0.565375 -0.319393,0.01258 -0.572366,-0.01258 -0.756651,-0.06956 -0.1842864,-0.05703 -0.2945156,-0.140939 -0.3567131,-0.247909 -0.062076,-0.106792 -0.080184,-0.245039 -0.037757,-0.43372 0.042414,-0.188683 0.1466542,-0.423036 0.3174661,-0.695046 a 0.12719744,0.12719744 0 0 0 0.002,-0.0016 c 0.307171,-0.505902 0.873517,-1.087553 1.642969,-1.721938 z m 7.6608923,0 c 0.770011,0.634598 1.340737,1.216776 1.654395,1.723451 a 0.12719744,0.12719744 0 0 0 0,0.002 c 0.173896,0.271911 0.280648,0.504982 0.32293,0.693058 0.04228,0.188076 0.02337,0.324887 -0.04124,0.431732 a 0.12719744,0.12719744 0 0 0 0,0.002 c -0.06221,0.106993 -0.174425,0.190878 -0.3587,0.247912 -0.18428,0.05703 -0.437265,0.08222 -0.756651,0.06956 -0.598327,-0.02412 -1.390127,-0.224482 -2.326587,-0.565378 0.07961,-0.532836 0.139847,-1.07625 0.176867,-1.63005 0.465174,-0.313925 0.90618,-0.638768 1.32898,-0.974254 z m -5.540978,1.470074 c 0.143692,0.08993 0.285511,0.18182 0.437694,0.268777 0.147431,0.08669 0.298328,0.166944 0.448624,0.24791 -0.268182,0.122813 -0.534177,0.239678 -0.796395,0.350753 -0.03681,-0.28427 -0.06478,-0.574253 -0.08991,-0.86744 z m 3.42107,0.002 c -0.02511,0.292542 -0.05319,0.581789 -0.08993,0.865451 -0.261699,-0.110848 -0.526767,-0.228201 -0.794407,-0.35075 0.150745,-0.08118 0.300113,-0.160993 0.456572,-0.247911 a 0.12719744,0.12719744 0 0 0 0.0016,-0.002 c 0.146268,-0.08603 0.285575,-0.175895 0.426267,-0.264802 z m -1.721466,0.938981 c 0.503624,0.247027 1.00953,0.465843 1.518765,0.664737 -0.166162,0.963545 -0.386251,1.740582 -0.664739,2.279389 a 0.12719744,0.12719744 0 0 0 0,0.002 c -0.145391,0.287621 -0.294138,0.498144 -0.435708,0.630955 -0.141568,0.132811 -0.269847,0.187797 -0.397948,0.187797 -0.132088,0 -0.264667,-0.05678 -0.409375,-0.189784 -0.14471,-0.132998 -0.294636,-0.343361 -0.44316,-0.630933 -0.278487,-0.538807 -0.498576,-1.315844 -0.66474,-2.279388 0.501599,-0.198269 1.00088,-0.418693 1.496905,-0.664738 z"
         id="text5407" />
      <path
         inkscape:connector-curvature="0"
         id="path5369"
         d="m 0.72760492,18.520836 v 4.167188 c 0,1.539081 1.23904398,2.778124 2.77812498,2.778124 H 22.952604 c 1.539081,0 2.778125,-1.239043 2.778125,-2.778124 v -4.167188 z"
         style="opacity:1;fill:#222222;fill-opacity:1;fill-rule:nonzero;stroke:none;stroke-width:0.24999997;stroke-linecap:butt;stroke-linejoin:round;stroke-miterlimit:4;stroke-dasharray:none;stroke-dashoffset:0;stroke-opacity:0.90944878;paint-order:normal" />
    </g>
    <text
       xml:space="preserve"
       style="font-style:normal;font-variant:normal;font-weight:500;font-stretch:normal;font-size:8.46667px;line-height:4.23333px;font-family:Montserrat;-inkscape-font-specification:'Montserrat Medium';text-align:center;text-anchor:middle;opacity:1;fill:#eeeeee;fill-opacity:1;fill-rule:nonzero;stroke:none;stroke-width:4.23333;stroke-linecap:butt;stroke-linejoin:round;stroke-miterlimit:4;stroke-dasharray:none;stroke-dashoffset:0;stroke-opacity:1;paint-order:stroke fill markers"
       x="-355.53735"
       y="24.113144"
       id="text4627-36-3"><tspan
         sodipodi:role="line"
         id="tspan4625-0-6"
         x="-355.53735"
         y="24.113144"
         style="font-style:normal;font-variant:normal;font-weight:500;font-stretch:normal;font-size:8.46667px;font-family:Montserrat;-inkscape-font-specification:'Montserrat Medium';text-align:center;text-anchor:middle;fill:#eeeeee;fill-opacity:1;stroke-width:4.23333">ORD</tspan></text>
    <g
       aria-label="PROGRESSIVISM"
       id="text28"
       style="font-size:5.00107px;line-height:1.25;font-family:sans-serif;fill:#ffffff;stroke-width:0.0781418">
      <path
         d="m -92.190932,139.17693 q 0,0.24419 -0.08547,0.47862 -0.08547,0.23198 -0.244193,0.3907 -0.217332,0.21489 -0.485944,0.32478 -0.26617,0.10989 -0.664205,0.10989 h -0.583621 v 1.18433 h -0.9377 v -3.63603 h 1.543299 q 0.346754,0 0.583621,0.061 0.239309,0.0586 0.422453,0.17826 0.219774,0.14407 0.334545,0.36873 0.117212,0.22466 0.117212,0.53967 z m -0.969446,0.022 q 0,-0.15384 -0.08303,-0.26372 -0.08303,-0.11233 -0.192913,-0.15629 -0.146515,-0.0586 -0.285705,-0.0635 -0.13919,-0.007 -0.371173,-0.007 h -0.161168 v 1.0891 h 0.268612 q 0.23931,0 0.393151,-0.0293 0.156283,-0.0293 0.261286,-0.11721 0.09035,-0.0781 0.129423,-0.18559 0.04151,-0.10988 0.04151,-0.26617 z"
         style="font-style:normal;font-variant:normal;font-weight:bold;font-stretch:normal;font-family:sans-serif;-inkscape-font-specification:'sans-serif Bold';fill:#ffffff;stroke-width:0.0781418"
         id="path30" />
      <path
         d="m -89.487717,139.14274 q 0,-0.13675 -0.05616,-0.23442 -0.05617,-0.0977 -0.192913,-0.15385 -0.09524,-0.0391 -0.222215,-0.0464 -0.12698,-0.01 -0.295473,-0.01 h -0.339429 v 0.97921 h 0.288148 q 0.224657,0 0.376057,-0.022 0.1514,-0.022 0.253961,-0.10012 0.09768,-0.0757 0.141631,-0.16605 0.0464,-0.0928 0.0464,-0.24664 z m 1.462715,2.52251 h -1.145264 l -0.991423,-1.33329 h -0.432222 v 1.33329 h -0.932816 v -3.63603 h 1.572602 q 0.322334,0 0.554318,0.0366 0.231983,0.0366 0.434663,0.15873 0.205122,0.12209 0.324776,0.31745 0.122097,0.19291 0.122097,0.48594 0,0.40292 -0.188029,0.65688 -0.185586,0.25396 -0.53234,0.42245 z"
         style="font-style:normal;font-variant:normal;font-weight:bold;font-stretch:normal;font-family:sans-serif;-inkscape-font-specification:'sans-serif Bold';fill:#ffffff;stroke-width:0.0781418"
         id="path32" />
      <path
         d="m -84.078845,139.84846 q 0,0.86932 -0.498153,1.38213 -0.498154,0.51036 -1.377248,0.51036 -0.876652,0 -1.374806,-0.51036 -0.498153,-0.51281 -0.498153,-1.38213 0,-0.87665 0.498153,-1.38458 0.498154,-0.51036 1.374806,-0.51036 0.874211,0 1.374806,0.51036 0.500595,0.50793 0.500595,1.38458 z m -1.242941,0.9206 q 0.136748,-0.16605 0.20268,-0.3907 0.06593,-0.2271 0.06593,-0.53234 0,-0.32722 -0.0757,-0.55676 -0.0757,-0.22955 -0.197796,-0.37118 -0.124539,-0.14651 -0.288148,-0.21244 -0.161167,-0.0659 -0.336986,-0.0659 -0.178261,0 -0.336986,0.0635 -0.156284,0.0635 -0.288148,0.21001 -0.122096,0.13675 -0.200238,0.3785 -0.0757,0.23931 -0.0757,0.55676 0,0.32477 0.07326,0.55432 0.0757,0.22709 0.197796,0.37117 0.122097,0.14407 0.285706,0.21245 0.163609,0.0684 0.344312,0.0684 0.180703,0 0.344312,-0.0684 0.163609,-0.0708 0.285706,-0.21734 z"
         style="font-style:normal;font-variant:normal;font-weight:bold;font-stretch:normal;font-family:sans-serif;-inkscape-font-specification:'sans-serif Bold';fill:#ffffff;stroke-width:0.0781418"
         id="path34" />
      <path
         d="m -80.147339,141.45769 q -0.244193,0.0952 -0.647111,0.19047 -0.402919,0.0928 -0.803395,0.0928 -0.927933,0 -1.452947,-0.50303 -0.525015,-0.50548 -0.525015,-1.39435 0,-0.84735 0.529898,-1.36503 0.529899,-0.52014 1.477367,-0.52014 0.358964,0 0.68374,0.0659 0.324777,0.0635 0.722811,0.2564 v 0.85223 h -0.105003 q -0.06837,-0.0513 -0.200238,-0.14407 -0.131864,-0.0952 -0.25396,-0.16117 -0.141632,-0.0781 -0.332103,-0.1343 -0.188028,-0.0562 -0.400476,-0.0562 -0.249077,0 -0.451757,0.0733 -0.20268,0.0733 -0.363847,0.22466 -0.153842,0.14651 -0.244193,0.37361 -0.08791,0.22466 -0.08791,0.52013 0,0.60316 0.319893,0.92305 0.319893,0.31989 0.945026,0.31989 0.05372,0 0.117213,-0.002 0.06593,-0.002 0.119655,-0.007 v -0.71305 h -0.725253 v -0.68618 h 1.677605 z"
         style="font-style:normal;font-variant:normal;font-weight:bold;font-stretch:normal;font-family:sans-serif;-inkscape-font-specification:'sans-serif Bold';fill:#ffffff;stroke-width:0.0781418"
         id="path36" />
      <path
         d="m -77.268305,139.14274 q 0,-0.13675 -0.05617,-0.23442 -0.05616,-0.0977 -0.192912,-0.15385 -0.09524,-0.0391 -0.222215,-0.0464 -0.126981,-0.01 -0.295474,-0.01 h -0.339428 v 0.97921 h 0.288148 q 0.224657,0 0.376057,-0.022 0.151399,-0.022 0.25396,-0.10012 0.09768,-0.0757 0.141632,-0.16605 0.0464,-0.0928 0.0464,-0.24664 z m 1.462715,2.52251 h -1.145265 l -0.991423,-1.33329 h -0.432221 v 1.33329 h -0.932817 v -3.63603 h 1.572602 q 0.322335,0 0.554318,0.0366 0.231983,0.0366 0.434663,0.15873 0.205123,0.12209 0.324777,0.31745 0.122096,0.19291 0.122096,0.48594 0,0.40292 -0.188028,0.65688 -0.185587,0.25396 -0.532341,0.42245 z"
         style="font-style:normal;font-variant:normal;font-weight:bold;font-stretch:normal;font-family:sans-serif;-inkscape-font-specification:'sans-serif Bold';fill:#ffffff;stroke-width:0.0781418"
         id="path38" />
      <path
         d="m -72.765388,141.66525 h -2.629958 v -3.63603 h 2.629958 v 0.70328 h -1.697141 v 0.62757 h 1.575044 v 0.70328 h -1.575044 v 0.89863 h 1.697141 z"
         style="font-style:normal;font-variant:normal;font-weight:bold;font-stretch:normal;font-family:sans-serif;-inkscape-font-specification:'sans-serif Bold';fill:#ffffff;stroke-width:0.0781418"
         id="path40" />
      <path
         d="m -69.068309,140.52243 q 0,0.53722 -0.45664,0.87421 -0.454199,0.33454 -1.235616,0.33454 -0.451757,0 -0.788743,-0.0781 -0.334545,-0.0806 -0.627576,-0.20268 v -0.87177 h 0.102561 q 0.29059,0.23199 0.649553,0.35653 0.361406,0.12453 0.693508,0.12453 0.08547,0 0.224657,-0.0147 0.13919,-0.0146 0.2271,-0.0488 0.107445,-0.0439 0.175819,-0.10988 0.07081,-0.0659 0.07081,-0.19536 0,-0.11965 -0.102561,-0.20512 -0.100119,-0.0879 -0.295473,-0.1343 -0.205122,-0.0488 -0.434663,-0.0904 -0.2271,-0.044 -0.427338,-0.10988 -0.459082,-0.14896 -0.661762,-0.40292 -0.200239,-0.2564 -0.200239,-0.6349 0,-0.50792 0.454199,-0.82782 0.456641,-0.32233 1.172126,-0.32233 0.358963,0 0.708159,0.0708 0.351638,0.0684 0.60804,0.17338 v 0.83758 h -0.100119 q -0.219773,-0.17582 -0.539666,-0.29303 -0.317451,-0.11965 -0.649553,-0.11965 -0.117212,0 -0.234425,0.0171 -0.114771,0.0146 -0.222216,0.0586 -0.09524,0.0366 -0.163609,0.11233 -0.06837,0.0733 -0.06837,0.16849 0,0.14407 0.109887,0.22221 0.109887,0.0757 0.415128,0.13919 0.200238,0.0415 0.383383,0.0806 0.185586,0.0391 0.398034,0.10744 0.41757,0.13675 0.615366,0.37362 0.200238,0.23442 0.200238,0.61048 z"
         style="font-style:normal;font-variant:normal;font-weight:bold;font-stretch:normal;font-family:sans-serif;-inkscape-font-specification:'sans-serif Bold';fill:#ffffff;stroke-width:0.0781418"
         id="path42" />
      <path
         d="m -65.515302,140.52243 q 0,0.53722 -0.45664,0.87421 -0.454199,0.33454 -1.235616,0.33454 -0.451757,0 -0.788743,-0.0781 -0.334544,-0.0806 -0.627576,-0.20268 v -0.87177 h 0.102561 q 0.29059,0.23199 0.649553,0.35653 0.361406,0.12453 0.693508,0.12453 0.08547,0 0.224657,-0.0147 0.13919,-0.0146 0.2271,-0.0488 0.107445,-0.0439 0.175819,-0.10988 0.07082,-0.0659 0.07082,-0.19536 0,-0.11965 -0.102561,-0.20512 -0.10012,-0.0879 -0.295474,-0.1343 -0.205122,-0.0488 -0.434663,-0.0904 -0.227099,-0.044 -0.427338,-0.10988 -0.459082,-0.14896 -0.661762,-0.40292 -0.200238,-0.2564 -0.200238,-0.6349 0,-0.50792 0.454198,-0.82782 0.456641,-0.32233 1.172126,-0.32233 0.358964,0 0.708159,0.0708 0.351638,0.0684 0.608041,0.17338 v 0.83758 h -0.100119 q -0.219774,-0.17582 -0.539667,-0.29303 -0.31745,-0.11965 -0.649553,-0.11965 -0.117212,0 -0.234425,0.0171 -0.114771,0.0146 -0.222215,0.0586 -0.09524,0.0366 -0.16361,0.11233 -0.06837,0.0733 -0.06837,0.16849 0,0.14407 0.109887,0.22221 0.109887,0.0757 0.415128,0.13919 0.200238,0.0415 0.383383,0.0806 0.185586,0.0391 0.398034,0.10744 0.41757,0.13675 0.615366,0.37362 0.200238,0.23442 0.200238,0.61048 z"
         style="font-style:normal;font-variant:normal;font-weight:bold;font-stretch:normal;font-family:sans-serif;-inkscape-font-specification:'sans-serif Bold';fill:#ffffff;stroke-width:0.0781418"
         id="path44" />
      <path
         d="m -62.907323,141.66525 h -2.129362 v -0.64467 h 0.595831 v -2.34669 h -0.595831 v -0.64467 h 2.129362 v 0.64467 h -0.59583 v 2.34669 h 0.59583 z"
         style="font-style:normal;font-variant:normal;font-weight:bold;font-stretch:normal;font-family:sans-serif;-inkscape-font-specification:'sans-serif Bold';fill:#ffffff;stroke-width:0.0781418"
         id="path46" />
      <path
         d="m -58.846394,138.02922 -1.325967,3.63603 h -1.05003 l -1.325967,-3.63603 h 0.984097 l 0.879095,2.55426 0.879094,-2.55426 z"
         style="font-style:normal;font-variant:normal;font-weight:bold;font-stretch:normal;font-family:sans-serif;-inkscape-font-specification:'sans-serif Bold';fill:#ffffff;stroke-width:0.0781418"
         id="path48" />
      <path
         d="m -56.358069,141.66525 h -2.129362 v -0.64467 h 0.59583 v -2.34669 h -0.59583 v -0.64467 h 2.129362 v 0.64467 H -56.9539 v 2.34669 h 0.595831 z"
         style="font-style:normal;font-variant:normal;font-weight:bold;font-stretch:normal;font-family:sans-serif;-inkscape-font-specification:'sans-serif Bold';fill:#ffffff;stroke-width:0.0781418"
         id="path50" />
      <path
         d="m -52.682967,140.52243 q 0,0.53722 -0.456641,0.87421 -0.454198,0.33454 -1.235616,0.33454 -0.451756,0 -0.788743,-0.0781 -0.334544,-0.0806 -0.627575,-0.20268 v -0.87177 h 0.102561 q 0.290589,0.23199 0.649553,0.35653 0.361405,0.12453 0.693507,0.12453 0.08547,0 0.224658,-0.0147 0.13919,-0.0146 0.227099,-0.0488 0.107445,-0.0439 0.175819,-0.10988 0.07082,-0.0659 0.07082,-0.19536 0,-0.11965 -0.102561,-0.20512 -0.100119,-0.0879 -0.295473,-0.1343 -0.205122,-0.0488 -0.434664,-0.0904 -0.227099,-0.044 -0.427337,-0.10988 -0.459083,-0.14896 -0.661763,-0.40292 -0.200238,-0.2564 -0.200238,-0.6349 0,-0.50792 0.454199,-0.82782 0.45664,-0.32233 1.172126,-0.32233 0.358963,0 0.708159,0.0708 0.351638,0.0684 0.60804,0.17338 v 0.83758 h -0.100119 q -0.219774,-0.17582 -0.539666,-0.29303 -0.317451,-0.11965 -0.649553,-0.11965 -0.117213,0 -0.234425,0.0171 -0.114771,0.0146 -0.222216,0.0586 -0.09524,0.0366 -0.163609,0.11233 -0.06837,0.0733 -0.06837,0.16849 0,0.14407 0.109887,0.22221 0.109886,0.0757 0.415128,0.13919 0.200238,0.0415 0.383382,0.0806 0.185587,0.0391 0.398035,0.10744 0.41757,0.13675 0.615366,0.37362 0.200238,0.23442 0.200238,0.61048 z"
         style="font-style:normal;font-variant:normal;font-weight:bold;font-stretch:normal;font-family:sans-serif;-inkscape-font-specification:'sans-serif Bold';fill:#ffffff;stroke-width:0.0781418"
         id="path52" />
      <path
         d="m -48.22889,141.66525 h -0.932817 v -2.4346 l -0.673972,1.57993 h -0.647111 l -0.673973,-1.57993 v 2.4346 h -0.883978 v -3.63603 h 1.0891 l 0.818046,1.82412 0.815605,-1.82412 h 1.0891 z"
         style="font-style:normal;font-variant:normal;font-weight:bold;font-stretch:normal;font-family:sans-serif;-inkscape-font-specification:'sans-serif Bold';fill:#ffffff;stroke-width:0.0781418"
         id="path54" />
    </g>
  </g>
</svg>
