<?xml version="1.0" encoding="UTF-8" standalone="no"?>
<svg
   xmlns:dc="http://purl.org/dc/elements/1.1/"
   xmlns:cc="http://creativecommons.org/ns#"
   xmlns:rdf="http://www.w3.org/1999/02/22-rdf-syntax-ns#"
   xmlns:svg="http://www.w3.org/2000/svg"
   xmlns="http://www.w3.org/2000/svg"
   xmlns:sodipodi="http://sodipodi.sourceforge.net/DTD/sodipodi-0.dtd"
   xmlns:inkscape="http://www.inkscape.org/namespaces/inkscape"
   width="200"
   height="200"
   viewBox="0 0 52.916668 52.916666"
   version="1.1"
   id="svg8"
   inkscape:version="1.0.2-2 (e86c870879, 2021-01-15)"
   sodipodi:docname="wealth.svg">
  <defs
     id="defs2">
    <inkscape:path-effect
       effect="envelope"
       id="path-effect4658"
       is_visible="true"
       yy="true"
       xx="true"
       bendpath1="m -199.08406,108.42369 h 7.0057"
       bendpath2="m -192.07836,108.42369 v 6.75242"
       bendpath3="m -199.08406,115.17611 h 7.0057"
       bendpath4="m -199.08406,108.42369 v 6.75242" />
    <inkscape:path-effect
       effect="bend_path"
       id="path-effect4656"
       is_visible="true"
       bendpath="m -192.00142,114.60623 c 2.12577,-0.53066 4.48261,0.85111 7.0057,0"
       prop_scale="1"
       scale_y_rel="false"
       vertical="false"
       bendpath-nodetypes="cc" />
    <inkscape:path-effect
       effect="bounding_box"
       id="path-effect4654"
       is_visible="true"
       linkedpath=""
       visualbounds="false" />
  </defs>
  <sodipodi:namedview
     id="base"
     pagecolor="#ffffff"
     bordercolor="#666666"
     borderopacity="1.0"
     inkscape:pageopacity="0.0"
     inkscape:pageshadow="2"
     inkscape:zoom="2.8284271"
     inkscape:cx="134.68177"
     inkscape:cy="129.62442"
     inkscape:document-units="mm"
     inkscape:current-layer="layer1"
     showgrid="false"
     fit-margin-top="0"
     fit-margin-left="0"
     fit-margin-right="0"
     fit-margin-bottom="0"
     inkscape:window-width="1920"
     inkscape:window-height="1017"
     inkscape:window-x="-8"
     inkscape:window-y="-8"
     inkscape:window-maximized="1"
     showguides="false"
     inkscape:object-nodes="true"
     units="px"
     inkscape:snap-page="true"
     inkscape:document-rotation="0" />
  <metadata
     id="metadata5">
    <rdf:RDF>
      <cc:Work
         rdf:about="">
        <dc:format>image/svg+xml</dc:format>
        <dc:type
           rdf:resource="http://purl.org/dc/dcmitype/StillImage" />
        <dc:title />
      </cc:Work>
    </rdf:RDF>
  </metadata>
  <g
     inkscape:label="Layer 1"
     inkscape:groupmode="layer"
     id="layer1"
     transform="translate(249.80447,-91.409467)">
    <g
       style="stroke-width:0.5"
       id="g5334"
       transform="matrix(2,0,0,2,-249.80447,91.409467)">
      <rect
         ry="1.984375"
         rx="1.984375"
         style="opacity:1;fill:#222222;fill-opacity:1;fill-rule:nonzero;stroke:none;stroke-width:0.25;stroke-linecap:butt;stroke-linejoin:round;stroke-miterlimit:4;stroke-dasharray:none;stroke-dashoffset:0;stroke-opacity:0.90944878;paint-order:normal"
         id="rect5322"
         width="26.458334"
         height="26.458334"
         x="0"
         y="-1.110223e-16" />
      <rect
         ry="1.3229166"
         rx="1.3229166"
         y="1.322917"
         x="1.322917"
         height="23.8125"
         width="23.8125"
         id="rect5324"
         style="opacity:1;fill:#00897b;fill-opacity:1;fill-rule:nonzero;stroke:none;stroke-width:0.25;stroke-linecap:butt;stroke-linejoin:round;stroke-miterlimit:4;stroke-dasharray:none;stroke-dashoffset:0;stroke-opacity:0.90944878;paint-order:normal" />
      <path
         inkscape:connector-curvature="0"
         id="path5326"
         d="m 0.72760467,18.520836 v 4.167188 c 0,1.539081 1.23904383,2.778124 2.77812503,2.778124 H 22.952604 c 1.539081,0 2.778125,-1.239043 2.778125,-2.778124 v -4.167188 z"
         style="opacity:1;fill:#222222;fill-opacity:1;fill-rule:nonzero;stroke:none;stroke-width:0.24999999;stroke-linecap:butt;stroke-linejoin:round;stroke-miterlimit:4;stroke-dasharray:none;stroke-dashoffset:0;stroke-opacity:0.90944878;paint-order:normal" />
      <path
         style="fill:#ffffff;fill-opacity:1;stroke-width:0.463442"
         d="m 11.914086,17.135277 -0.01666,-0.747487 -0.568627,-0.09436 c -0.60888,-0.101039 -1.4174154,-0.336068 -1.8555177,-0.539366 -0.718669,-0.333497 -1.4581829,-1.014102 -1.7143351,-1.57778 -0.1352744,-0.297677 -0.16362,-0.44142 -0.1625998,-0.824549 0.00146,-0.554185 0.1388871,-0.869444 0.5135048,-1.178119 0.3872005,-0.319045 0.8302991,-0.470045 1.3933577,-0.474836 0.5505791,-0.0046 0.8969811,0.10697 1.2604741,0.406296 1.18462,0.97549 0.541634,2.591442 -1.0947288,2.751267 l -0.3834344,0.03746 0.1668466,0.15883 c 0.3173832,0.30214 1.0326406,0.580956 1.9242726,0.750109 0.615478,0.11676 0.550718,0.395436 0.550718,-2.36982 v -2.43 l -0.314238,-0.13122 C 11.440287,10.799537 11.064991,10.642539 10.779129,10.522818 9.4384889,9.9613551 8.5013934,9.1389841 8.1519385,8.217264 7.8781902,7.495227 7.9602535,6.3196753 8.3373572,5.5611436 8.8623575,4.5051247 10.081311,3.7004721 11.583192,3.4185109 l 0.344169,-0.064613 V 2.6480884 1.9422795 h 0.239421 0.239423 v 0.6823842 0.6823835 h 0.598555 0.598555 V 2.6246637 1.9422795 h 0.269349 0.26935 v 0.7096794 c 0,0.3903235 0.02021,0.7098646 0.04489,0.7100914 0.19856,0.00183 0.883314,0.1367329 1.25367,0.2469953 1.526832,0.4545691 2.431227,1.2579145 2.517314,2.2360511 0.03807,0.4325567 -0.08288,0.7636785 -0.393525,1.0772748 -0.352116,0.3554721 -0.61365,0.4508369 -1.237622,0.4512916 -0.492736,3.81e-4 -0.56665,-0.014064 -0.866311,-0.1690858 -0.396599,-0.205164 -0.682523,-0.5595041 -0.783481,-0.9709541 -0.06369,-0.2595531 -0.05753,-0.3369039 0.0533,-0.6696872 0.132033,-0.396447 0.259999,-0.5422119 0.709504,-0.8081704 0.187529,-0.1109557 0.333697,-0.1502998 0.583106,-0.1569552 0.183061,-0.00488 0.333061,-0.026999 0.333329,-0.04914 0.0018,-0.1432449 -0.951061,-0.5265864 -1.585687,-0.6379776 -0.197522,-0.03467 -0.420036,-0.074889 -0.494473,-0.089375 l -0.13534,-0.026341 0.01563,2.2426004 0.01563,2.242601 0.587275,0.2106654 c 1.270667,0.4558072 2.374083,1.0335454 2.965576,1.5527434 0.819754,0.719564 1.076891,1.199631 1.12812,2.106151 0.05623,0.994715 -0.145536,1.725251 -0.68156,2.467941 -0.483709,0.670202 -1.180431,1.113303 -2.254954,1.434099 -0.357367,0.106697 -0.902801,0.223133 -1.212074,0.25876 l -0.562312,0.06478 v 0.753223 0.753227 H 13.872674 13.603325 V 17.145792 16.408817 H 13.00477 12.406215 v 0.736975 0.736974 h -0.237743 -0.237733 z m 1.46477,-1.217033 0.224459,-7.52e-4 v -2.177893 -2.177897 l -0.539113,-0.196797 c -0.296511,-0.10824 -0.565862,-0.196798 -0.598555,-0.196798 -0.03844,0 -0.05944,0.8379 -0.05944,2.371557 v 2.371556 l 0.254386,0.02193 c 0.139912,0.01201 0.308257,0.01382 0.374097,0.004 0.06585,-0.01 0.220717,-0.01839 0.344169,-0.01879 z m 1.419634,-0.314943 c 0.450185,-0.193565 0.974047,-0.658217 1.141914,-1.012845 0.186055,-0.393056 0.188402,-1.048433 0.0051,-1.426351 -0.254058,-0.523824 -0.673472,-0.87508 -1.502229,-1.258103 l -0.301251,-0.139237 v 2.026695 2.026694 l 0.162669,-0.03723 c 0.08946,-0.02048 0.311681,-0.101303 0.493808,-0.179615 z M 13.603315,5.9274004 V 3.743773 l -0.374098,6.106e-4 c -0.205752,3.304e-4 -0.475434,0.015879 -0.599292,0.034548 l -0.225198,0.033946 0.0157,1.9677469 0.0157,1.9677471 0.14964,0.039844 c 0.0823,0.021915 0.338183,0.1026004 0.568627,0.1792912 0.230444,0.076698 0.425723,0.1403635 0.433953,0.1414859 0.0082,0.00113 0.01497,-0.9805917 0.01497,-2.1815874 z M 11.927361,5.7363333 c 0,-2.0188029 0.0371,-1.902173 -0.513487,-1.6141479 -0.448398,0.2345681 -0.880192,0.6912489 -1.01031,1.0685428 -0.22132,0.6417454 -0.04,1.2132409 0.547977,1.7272097 0.219413,0.1917934 0.838666,0.5841464 0.930928,0.5898281 0.02469,0.0015 0.04489,-0.7956243 0.04489,-1.7714327 z"
         id="path5347"
         inkscape:connector-curvature="0" />
      <g
         aria-label="CAPITALISM"
         id="text25"
         style="font-size:3.45301px;line-height:1.25;font-family:sans-serif;fill:#ffffff;stroke-width:0.0269766">
        <path
           d="m 2.5603311,23.489958 q -0.2798827,0 -0.5176143,-0.08262 -0.2360456,-0.08262 -0.4063357,-0.246162 -0.17029,-0.163546 -0.2647083,-0.408021 -0.092732,-0.244476 -0.092732,-0.564824 0,-0.298429 0.08936,-0.541219 0.08936,-0.242789 0.2596502,-0.416452 0.1635459,-0.166918 0.4046496,-0.257964 0.2427898,-0.09105 0.5294166,-0.09105 0.1584878,0 0.2849408,0.01855 0.128139,0.01686 0.2360456,0.04552 0.1129647,0.03203 0.2040109,0.0725 0.092732,0.03878 0.1618598,0.0725 v 0.608661 h -0.074186 q -0.047209,-0.04046 -0.1197088,-0.0961 -0.070814,-0.05564 -0.1618599,-0.109592 -0.092732,-0.05395 -0.2006387,-0.09105 -0.1079066,-0.03709 -0.2309875,-0.03709 -0.1365693,0 -0.2596502,0.04384 -0.1230809,0.04215 -0.2276154,0.141627 -0.099476,0.0961 -0.1618598,0.254592 -0.060698,0.158488 -0.060698,0.384417 0,0.236046 0.065756,0.394534 0.067442,0.158487 0.168604,0.249533 0.1028484,0.09273 0.2293014,0.133198 0.126453,0.03878 0.249534,0.03878 0.1180228,0 0.2326735,-0.03541 0.1163368,-0.03541 0.2141271,-0.09611 0.082616,-0.04889 0.1534296,-0.104534 0.070814,-0.05564 0.1163368,-0.0961 h 0.067442 v 0.60023 q -0.094418,0.04215 -0.1804063,0.07924 -0.085988,0.03709 -0.1804063,0.06407 -0.1230809,0.03541 -0.2309875,0.05395 -0.1079065,0.01855 -0.296743,0.01855 z"
           style="font-style:normal;font-variant:normal;font-weight:bold;font-stretch:normal;font-family:sans-serif;-inkscape-font-specification:'sans-serif Bold';fill:#ffffff;stroke-width:0.0269766"
           id="path17" />
        <path
           d="M 6.2443286,23.441063 H 5.5749707 L 5.4013086,22.933565 H 4.4706144 L 4.2969523,23.441063 H 3.6444548 l 0.927322,-2.510514 H 5.3170066 Z M 5.2445068,22.473276 4.9359615,21.572931 4.6274162,22.473276 Z"
           style="font-style:normal;font-variant:normal;font-weight:bold;font-stretch:normal;font-family:sans-serif;-inkscape-font-specification:'sans-serif Bold';fill:#ffffff;stroke-width:0.0269766"
           id="path19" />
        <path
           d="m 8.6772842,21.722988 q 0,0.168604 -0.059011,0.330464 -0.059011,0.160174 -0.168604,0.269766 -0.1500575,0.148372 -0.3355219,0.224244 -0.1837784,0.07587 -0.4586029,0.07587 H 7.2525804 v 0.81773 H 6.605141 v -2.510514 h 1.0655773 q 0.2394177,0 0.4029636,0.04215 0.1652319,0.04047 0.2916849,0.123081 0.1517436,0.09948 0.2309875,0.254592 0.08093,0.155116 0.08093,0.372615 z m -0.6693579,0.01517 q 0,-0.10622 -0.057325,-0.182092 -0.057325,-0.07756 -0.1331972,-0.107906 -0.1011624,-0.04046 -0.1972667,-0.04384 -0.096104,-0.0051 -0.2562781,-0.0051 H 7.2525804 v 0.751974 h 0.1854644 q 0.1652319,0 0.2714524,-0.02023 0.1079066,-0.02023 0.1804063,-0.08093 0.062384,-0.05395 0.08936,-0.128139 0.028663,-0.07587 0.028663,-0.183779 z"
           style="font-style:normal;font-variant:normal;font-weight:bold;font-stretch:normal;font-family:sans-serif;-inkscape-font-specification:'sans-serif Bold';fill:#ffffff;stroke-width:0.0269766"
           id="path21" />
        <path
           d="M 10.49315,23.441063 H 9.0229228 V 22.995948 H 9.4343165 V 21.375664 H 9.0229228 V 20.930549 H 10.49315 v 0.445115 h -0.411394 v 1.620284 h 0.411394 z"
           style="font-style:normal;font-variant:normal;font-weight:bold;font-stretch:normal;font-family:sans-serif;-inkscape-font-specification:'sans-serif Bold';fill:#ffffff;stroke-width:0.0269766"
           id="path23" />
        <path
           d="m 12.985117,21.416129 h -0.784009 v 2.024934 H 11.553669 V 21.416129 H 10.76966 v -0.48558 h 2.215457 z"
           style="font-style:normal;font-variant:normal;font-weight:bold;font-stretch:normal;font-family:sans-serif;-inkscape-font-specification:'sans-serif Bold';fill:#ffffff;stroke-width:0.0269766"
           id="path25" />
        <path
           d="m 15.694583,23.441063 h -0.669358 l -0.173662,-0.507498 h -0.930694 l -0.173662,0.507498 h -0.652498 l 0.927323,-2.510514 h 0.745229 z m -0.999821,-0.967787 -0.308546,-0.900345 -0.308545,0.900345 z"
           style="font-style:normal;font-variant:normal;font-weight:bold;font-stretch:normal;font-family:sans-serif;-inkscape-font-specification:'sans-serif Bold';fill:#ffffff;stroke-width:0.0269766"
           id="path27" />
        <path
           d="m 17.866203,23.441063 h -1.810807 v -2.510514 h 0.64744 v 2.024934 h 1.163367 z"
           style="font-style:normal;font-variant:normal;font-weight:bold;font-stretch:normal;font-family:sans-serif;-inkscape-font-specification:'sans-serif Bold';fill:#ffffff;stroke-width:0.0269766"
           id="path29" />
        <path
           d="m 19.61294,23.441063 h -1.470227 v -0.445115 h 0.411394 v -1.620284 h -0.411394 v -0.445115 h 1.470227 v 0.445115 h -0.411394 v 1.620284 h 0.411394 z"
           style="font-style:normal;font-variant:normal;font-weight:bold;font-stretch:normal;font-family:sans-serif;-inkscape-font-specification:'sans-serif Bold';fill:#ffffff;stroke-width:0.0269766"
           id="path31" />
        <path
           d="m 22.150432,22.651996 q 0,0.370929 -0.31529,0.603603 -0.313603,0.230987 -0.853136,0.230987 -0.311917,0 -0.544591,-0.05395 -0.230987,-0.05564 -0.433312,-0.139942 v -0.601916 h 0.07081 q 0.200639,0.160174 0.448487,0.246162 0.249534,0.08599 0.478836,0.08599 0.05901,0 0.155115,-0.01012 0.0961,-0.01012 0.156802,-0.03372 0.07419,-0.03035 0.121395,-0.07587 0.04889,-0.04552 0.04889,-0.134883 0,-0.08262 -0.07081,-0.141627 -0.06913,-0.0607 -0.204011,-0.09273 -0.141627,-0.03372 -0.300115,-0.06238 -0.156801,-0.03035 -0.295057,-0.07587 -0.316975,-0.102848 -0.456917,-0.278197 -0.138255,-0.177034 -0.138255,-0.43837 0,-0.350696 0.313604,-0.571568 0.315289,-0.222557 0.809299,-0.222557 0.247848,0 0.488951,0.0489 0.24279,0.04721 0.419824,0.119709 v 0.578312 h -0.06913 q -0.151744,-0.121395 -0.372615,-0.202325 -0.219185,-0.08262 -0.448487,-0.08262 -0.08093,0 -0.16186,0.0118 -0.07924,0.01012 -0.153429,0.04046 -0.06576,0.02529 -0.112965,0.07756 -0.04721,0.05058 -0.04721,0.116337 0,0.09948 0.07587,0.15343 0.07587,0.05227 0.286627,0.0961 0.138255,0.02866 0.264708,0.05564 0.128139,0.02698 0.274824,0.07419 0.288313,0.09442 0.424883,0.257964 0.138255,0.16186 0.138255,0.42151 z"
           style="font-style:normal;font-variant:normal;font-weight:bold;font-stretch:normal;font-family:sans-serif;-inkscape-font-specification:'sans-serif Bold';fill:#ffffff;stroke-width:0.0269766"
           id="path33" />
        <path
           d="m 25.225769,23.441063 h -0.644068 v -1.680982 l -0.465347,1.090868 h -0.4468 l -0.465348,-1.090868 v 1.680982 H 22.59386 v -2.510514 h 0.751974 l 0.564823,1.259472 0.563138,-1.259472 h 0.751974 z"
           style="font-style:normal;font-variant:normal;font-weight:bold;font-stretch:normal;font-family:sans-serif;-inkscape-font-specification:'sans-serif Bold';fill:#ffffff;stroke-width:0.0269766"
           id="path35" />
      </g>
    </g>
  </g>
</svg>
